<?xml version="1.0" encoding="UTF-8" standalone="no"?>
<!-- Generator: Adobe Illustrator 26.5.3, SVG Export Plug-In . SVG Version: 6.00 Build 0)  -->

<svg
   version="1.1"
   id="Layer_1"
   x="0px"
   y="0px"
   viewBox="0 0 2000.02 2000.02"
   style="enable-background:new 0 0 2000.02 2000.02;"
   xml:space="preserve"
   sodipodi:docname="112.svg"
   inkscape:version="1.2.2 (b0a8486541, 2022-12-01)"
   xmlns:inkscape="http://www.inkscape.org/namespaces/inkscape"
   xmlns:sodipodi="http://sodipodi.sourceforge.net/DTD/sodipodi-0.dtd"
   xmlns="http://www.w3.org/2000/svg"
   xmlns:svg="http://www.w3.org/2000/svg"><defs
   id="defs4771"><inkscape:path-effect
     effect="bspline"
     id="path-effect5473"
     is_visible="true"
     lpeversion="1"
     weight="33.333333"
     steps="2"
     helper_size="0"
     apply_no_weight="true"
     apply_with_weight="true"
     only_selected="false" /><inkscape:path-effect
     effect="bspline"
     id="path-effect4985"
     is_visible="true"
     lpeversion="1"
     weight="33.333333"
     steps="2"
     helper_size="0"
     apply_no_weight="true"
     apply_with_weight="true"
     only_selected="false" /></defs><sodipodi:namedview
   id="namedview4769"
   pagecolor="#ffffff"
   bordercolor="#666666"
   borderopacity="1.0"
   inkscape:showpageshadow="2"
   inkscape:pageopacity="0.0"
   inkscape:pagecheckerboard="0"
   inkscape:deskcolor="#d1d1d1"
   showgrid="false"
   showguides="false"
   inkscape:zoom="0.35355339"
   inkscape:cx="461.03362"
   inkscape:cy="1325.1181"
   inkscape:window-width="1715"
   inkscape:window-height="1288"
   inkscape:window-x="26"
   inkscape:window-y="23"
   inkscape:window-maximized="0"
   inkscape:current-layer="Layer_1" />
<style
   type="text/css"
   id="style4592">
	.st0{fill:#ED1F25;}
	.st1{fill:#030303;}
	.st2{fill:#E01F2B;}
</style>
<rect
   style="opacity:1;fill:#ffffff;fill-opacity:1;stroke:none;stroke-opacity:0"
   id="rect5529"
   width="2264.6421"
   height="2239.0425"
   x="-166.61203"
   y="-136.18434"
   sodipodi:insensitive="true" /><g
   id="g4766"
   transform="matrix(1.7323446,0,0,1.7323446,-2032.1546,-277.49237)">
	<g
   id="g4682">
		<path
   class="st0"
   d="m 1614.52,516.92 c 0,0 -17.02,8.44 -24.66,7.91 -7.64,-0.54 -10.32,-5.9 -22.65,-5.63 -12.33,0.27 -17.29,2.41 -16.21,-2.28 1.07,-4.69 4.69,-6.03 5.76,-10.05 1.07,-4.02 13,-8.71 19.56,-6.7 6.57,2.01 16.35,6.83 21.57,6.97 5.22,0.14 26.81,4.69 16.63,9.78 z"
   id="path4594" />
		<path
   class="st1"
   d="m 1464.32,1458.11 c 0,0 7.78,5 10.28,6.63 2.5,1.63 4.8,3.75 10.47,1.73 5.67,-2.02 10.28,6.34 10.28,9.13 0,2.79 -3.46,6.34 -5.38,6.92 -1.92,0.58 -5.28,1.25 -5.28,1.25 0,0 0.86,3.36 7.97,7.69 7.11,4.32 8.65,7.78 8.55,12.01 -0.1,4.23 4.61,5.09 8.55,4.13 3.94,-0.96 14.51,0.38 13.74,9.9 -0.77,9.51 -12.4,8.36 -14.22,8.36 -1.82,0 -11.63,-1.54 -16.33,-1.54 -4.71,0 -10.28,-4.61 -12.88,-0.67 -2.59,3.94 -8.46,7.49 -19.6,7.49 -11.15,0 -16.05,0.58 -18.93,7.98 -2.88,7.4 -7.4,12.88 -15.47,10.38 -8.07,-2.5 -11.24,-5.48 -10.76,-11.63 0.48,-6.15 5.19,-8.07 4.71,-8.65 -0.48,-0.58 -3.56,-1.83 -4.42,-4.61 -0.86,-2.79 0.29,-3.65 -2.21,-4.13 -2.5,-0.48 -8.26,-5.28 -8.94,-9.13 -0.68,-3.85 3.65,-7.59 4.42,-7.78 0.77,-0.19 0.29,-4.32 1.35,-5.96 1.06,-1.63 2.69,-5.28 0.19,-6.34 -2.5,-1.06 -0.48,-7.3 0.67,-8.94 1.15,-1.63 -0.77,-6.92 -0.1,-11.15 0.67,-4.23 -1.63,-5.38 -1.06,-13.64 0.57,-8.26 0.77,-25.65 0.77,-26.04 0,-0.39 -6.63,-9.03 -6.73,-18.16 -0.1,-9.13 -0.77,-31.23 2.5,-38.72 3.27,-7.49 10.76,-6.05 13.55,-4.9 2.79,1.15 9.99,3.65 9.61,8.07 -0.38,4.42 -3.36,6.15 -0.38,8.07 2.98,1.92 5.19,6.25 6.25,10.38 1.06,4.13 5.96,6.25 6.63,12.68 0.67,6.44 1.54,14.8 4.9,20.47 3.36,5.67 3.17,12.3 4.13,12.68 0.96,0.38 6.63,-2.59 9.51,5.28 2.88,7.87 1.83,8.94 3.66,10.76 z"
   id="path4596" />
		<path
   class="st1"
   d="m 1451.8,1339.37 c 0,0 10.32,1.4 14.02,7.71 3.71,6.31 3.81,8.31 8.71,8.31 4.9,0 9.72,2.9 12.12,4.41 2.4,1.5 9.11,2.4 9.32,3.91 0.2,1.5 11.52,5.51 15.53,6.61 4.01,1.1 -0.3,7.51 -0.5,8.51 -0.2,1 -2.5,1 -7.31,2.2 -4.81,1.2 -8.91,0.7 -11.62,-1.3 -2.7,-2 -4.51,-4.71 -12.22,-4.71 -7.71,0 -10.12,-2.9 -13.42,-4.61 -3.31,-1.7 -7.11,-5.31 -13.52,-5.11 -6.41,0.2 -9.01,-3.41 -13.32,-6.81 -4.31,-3.4 -4.81,-4.11 -5.31,-6.21 -0.5,-2.1 -12.42,-10.22 -14.62,-12.22 -2.2,-2 -10.42,0.2 -11.42,-6.81 -1,-7.01 4.31,-9.01 7.71,-8.71 3.41,0.3 7.51,-4.31 7.51,-5.61 0,-1.3 1.8,-7.81 7.71,-7.91 5.91,-0.1 11.32,4.21 13.22,9.22 1.9,5.01 7.81,5.41 8.41,11.22 0.6,5.81 -1,7.91 -1,7.91 z"
   id="path4598" />
		<path
   class="st1"
   d="m 1691.97,1213.61 c 0,0 -8.82,-0.45 -17.85,-7.92 -9.04,-7.48 -16.29,-6.36 -21.65,-8.82 -5.36,-2.45 -18.3,-12.16 -15.96,-12.27 2.34,-0.11 6.92,6.58 21.54,9.6 14.62,3.01 18.86,6.58 23.43,10.27 4.57,3.69 10.49,9.14 10.49,9.14 z"
   id="path4600" />
		<g
   id="g4622">
			<g
   id="g4620">
				<path
   class="st1"
   d="m 1690.64,1078.77 0.28,-0.39 -1.88,-2.38 c 0,0 1.55,-1 2.33,-1.83 0.78,-0.83 -2.05,-4.1 -3.71,-4.1 -1.66,0 -3.82,1.83 -3.82,1.83 l 6.1,7.2 z"
   id="path4602" />
				<polygon
   class="st1"
   points="1680.17,1085.26 1682.22,1086.7 1683.16,1084.76 1681.61,1084.09 "
   id="polygon4604" />
				<path
   class="st1"
   d="m 1678.29,1085.48 c -0.89,0.11 -5.49,-1.5 -5.49,-1.5 l -1,1.22 4.38,2.99 z"
   id="path4606" />
				<path
   class="st1"
   d="m 1645.81,1077.66 c 0,9.87 1.92,11.54 2.01,11.04 0.08,-0.5 5.02,-13.38 5.02,-13.38 l -4.51,-8.69 c -0.01,0 -2.52,1.17 -2.52,11.03 z"
   id="path4608" />
				<polygon
   class="st1"
   points="1690.03,1082.87 1688.54,1081.76 1685.88,1083.26 1688.43,1084.7 "
   id="polygon4610" />
				<path
   class="st1"
   d="m 1690.31,1086.86 1.88,0.55 c 0,0 2.99,-0.39 2.44,-1.5 -0.55,-1.1 -4.87,-0.32 -4.32,0.95 z"
   id="path4612" />
				<polygon
   class="st1"
   points="1657.02,1069.72 1654.17,1072.15 1654.93,1073.98 1658.35,1071.31 "
   id="polygon4614" />
				<path
   class="st1"
   d="m 1844.69,1088.41 c 1.61,-2.9 -0.75,-5.47 -0.75,-7.83 0,-2.36 -1.61,-7.29 -1.66,-11.89 -0.05,-4.59 -3.73,-18.68 -6.28,-29.15 -2.55,-10.46 -5.82,-13.83 -5.82,-13.83 0,0 0.66,-0.66 -1.17,-4.44 -1.84,-3.78 -6.99,-7.4 -6.99,-7.4 0,0 2.45,-3.32 -2.76,-9.55 -5.21,-6.23 -6.69,-4.65 -6.69,-4.65 0,0 -2.5,-4.24 -3.62,-8.01 -1.12,-3.77 -6.18,-3.93 -6.18,-3.93 0,0 -0.2,-1.43 -1.38,-3.17 -1.17,-1.74 -8.73,-5.21 -8.73,-5.21 0,0 -0.15,-2.2 -3.37,-5.62 -3.22,-3.42 -6.69,-2.96 -6.69,-2.96 0,0 -1.28,-1.12 -3.32,-3.93 -2.04,-2.81 -8.93,-4.19 -8.93,-4.19 0,0 -0.41,-1.94 -4.13,-4.75 -3.73,-2.81 -7.2,-2.67 -7.2,-2.67 -3.3,-2.83 -9.55,-6.12 -14.2,-7.97 -4.65,-1.85 -12.83,-2.35 -14.18,-2.89 -1.35,-0.54 -6.01,-2.08 -8.27,-2.03 -2.26,0.05 -3.25,0.36 -5.42,-0.5 -2.17,-0.86 -7.86,-1.58 -9.53,-1.13 -1.67,0.45 -2.98,1.13 -4.16,0.32 -1.17,-0.81 -7.59,-1.17 -9.71,0.05 -2.12,1.22 -4.56,0.68 -6.59,0.41 -2.03,-0.27 -10.4,3.15 -10.4,3.15 -20.19,6.39 -76.62,44.45 -77.91,44.45 -1.29,0 -7.59,8.13 -7.59,8.13 0,0 0,0 0.34,0.68 0.34,0.68 0.61,2.98 -1.02,2.98 -1.63,0 -3.86,0.27 -5.35,3.25 -1.49,2.98 -2.24,8.54 -3.39,8.54 -1.15,0 -3.93,3.05 -2.44,4.74 1.49,1.69 0.27,2.3 0.81,5.69 0.54,3.39 -1.49,4.54 -3.32,7.04 -1.83,2.5 -0.81,3.59 0.74,3.66 1.56,0.07 -3.18,6.64 -4.34,8.87 -1.15,2.24 2.98,5.01 2.14,6.91 -0.84,1.9 -2,3.79 -2.74,7.59 -0.74,3.8 2.85,6.65 1.28,6.94 -1.57,0.29 -1.64,6.14 -2.14,10.56 -0.5,4.42 0.57,7.28 -1.07,9.84 -1.64,2.57 -0.29,2.71 0.64,5.21 0.93,2.5 1.28,10.06 0.43,12.06 -0.86,2 0.21,3.71 1.14,5.21 0.93,1.5 0.14,2.07 2.64,5.42 2.5,3.35 2.14,4.92 0.07,6.28 -2.07,1.36 1.21,3.07 1.21,4.21 0,1.14 -5.49,1.64 -7.92,3.71 -2.43,2.07 -6.56,2.28 -4.49,-1 2.07,-3.28 1.78,-1.57 1.21,-3.99 -0.57,-2.43 -1.28,-5.64 -3.57,-6.49 -2.28,-0.86 -1.64,-3.57 -5.71,-3.35 -4.07,0.21 -4.28,-3.64 -6.92,-5.07 -2.64,-1.43 -7.21,-2.35 -7.21,-5.85 0,-3.5 -2.35,-6.85 -4.99,-7.56 -2.64,-0.71 -4.35,-3.71 -2,-4.28 2.35,-0.57 10.13,3.35 10.7,4.78 0.57,1.43 -0.07,4.42 2.5,5.49 2.57,1.07 5.28,3.85 5.42,-0.5 0.14,-4.35 3.42,-5.21 0.93,-7.35 -2.5,-2.14 -1.43,-4.07 1.93,-4.28 3.36,-0.21 1.64,-6.35 5.21,-8.49 3.57,-2.14 5.71,-9.99 4.35,-13.34 -1.36,-3.35 -4,-6.14 -3.85,-15.41 0.14,-9.27 4.35,-5.56 4.49,-12.2 0.14,-6.63 -11.2,-7.21 -11.7,-8.2 -0.5,-1 -3.71,-4.85 -7.92,-3.5 -4.21,1.36 -15.91,3.14 -17.12,1.14 -1.21,-2 -4.64,-3.92 -9.7,-3.78 -5.07,0.14 -7.63,-0.07 -4.28,-3.14 3.35,-3.07 2.28,-5.99 -1.57,-8.13 -3.85,-2.14 -9.92,-1.07 -10.63,-5.85 -0.71,-4.78 -10.7,-10.99 -15.34,-13.7 -4.64,-2.71 -5.49,-4.42 -7.06,-5.42 -1.57,-1 -1.85,-2.85 -1.57,-6.99 0.29,-4.14 -3.5,-4.64 -5.64,-6.85 -2.14,-2.21 -4.99,-1.57 -5.64,-3.07 -0.64,-1.5 -4.21,-6.21 -9.35,-6.21 -5.14,0 -10.63,1.93 -15.91,2 -5.28,0.07 -6.49,-1.57 -6.49,-1.57 0,0 4.57,-0.57 7.78,-0.57 3.21,0 5.78,0 8.56,-1.5 2.78,-1.5 5.71,-1.57 10.49,-1.43 4.78,0.14 3.35,1 5.21,3.85 1.85,2.85 9.77,0.29 9.7,2.78 -0.07,2.5 2.21,3.71 2.21,5.92 0,2.21 1.64,2.85 1.93,5.85 0.29,3 3.14,4.57 5.21,4.57 2.07,0 5.71,0.07 9.42,1.71 3.71,1.64 4.35,3.85 8.35,6.99 3.99,3.14 11.14,9.49 14.7,12.71 3.57,3.22 6.17,2.78 7.48,4.09 1.3,1.3 0.43,2.17 2.61,2.17 2.17,0 6.09,0 6.09,-0.61 0,-0.61 -2.7,-0.7 -2.96,-2.78 -0.26,-2.09 -0.26,-4.96 -1.83,-5.83 -1.56,-0.87 -13.48,-8.96 -17.04,-14.52 -3.57,-5.57 -9.65,-7.39 -9.74,-10.17 -0.09,-2.78 -5.74,-4.52 -6.26,-10 -0.52,-5.48 -13.65,-8.43 -18.87,-8 -5.22,0.43 -1.91,-1.04 -2.17,-4.96 -0.26,-3.91 -12.43,-4.61 -23.74,-4.35 -11.3,0.26 -30.17,6 -37.48,5.65 -7.3,-0.35 -6.87,-0.96 -16.44,-0.78 -9.57,0.17 -11.04,8.52 -15.83,9.83 -4.78,1.3 -4.96,9.48 -7.91,10.78 -2.96,1.3 -4.17,5.74 -7.04,9.22 -2.87,3.48 -4.7,8.35 -10.17,14.87 -5.48,6.52 1.04,10.44 1.74,11.22 0.7,0.78 -1.48,5.48 3.48,8.26 4.96,2.78 11.3,0.7 11.3,0.7 0,0 2.43,4 4.78,4.7 2.35,0.7 5.04,1.04 5.83,1.22 0.78,0.17 6.35,7.91 6.35,7.91 l -7.65,5.3 0.78,3.57 c 0,0 1.74,-0.09 14.78,-1.22 13.04,-1.13 14.17,0.7 17.65,2.78 3.48,2.09 7.22,3.74 7.22,1.13 0,-2.61 1.22,-3.3 6,-3.39 4.78,-0.09 4.52,-3.04 5.91,-5.39 1.39,-2.35 6.26,-1.48 14.09,-2.09 7.83,-0.61 8.7,4.26 8.7,4.26 0,0 6.87,1.57 13.65,1.48 6.78,-0.09 13.83,-4.96 23.04,-2.96 9.22,2 4.35,12.17 -1.3,12.17 -5.65,0 -10.96,0.96 -17.74,3.83 -6.78,2.87 -11.39,0.7 -13.48,0.35 -2.09,-0.35 -15.57,4 -21.83,4.35 -6.26,0.35 -7.57,0.17 -7.39,-2.96 0.17,-3.13 7.13,-1.74 11.04,-1.74 3.91,0 17.3,-1.48 17.22,-3.04 -0.09,-1.57 -8,-0.35 -12.87,-1.13 -4.87,-0.78 -5.91,1.48 -11.65,1.3 -5.74,-0.17 -9.13,0.35 -15.22,0.35 -6.09,0 -13.3,-0.7 -18.61,-0.7 -5.3,0 -14.96,-1.13 -25.74,0.61 -10.78,1.74 -12.96,5.48 -7.22,5.48 5.74,0 3.91,0.61 6.26,1.48 2.35,0.87 8.17,-1.13 15.83,-1.48 7.65,-0.35 9.74,0.26 10,4.17 0.26,3.91 -0.61,5.65 -4.78,6.61 -4.17,0.96 -19.65,3.22 -22.26,3.48 -2.61,0.26 -3.39,3.91 -7.04,4.52 -3.65,0.61 -3.3,3.04 -1.65,5.3 1.65,2.26 1.22,2.35 6.78,2.87 5.57,0.52 4.35,6.17 5.83,6.17 1.48,0 1.91,-1.04 5.57,0.61 3.65,1.65 4.26,9.74 2.87,12.96 -1.39,3.22 2.26,5.39 2.26,8.96 0,3.57 3.13,2.17 7.3,2 4.17,-0.17 3.48,3.65 -0.35,4 -3.83,0.35 -3.39,3.3 -3.04,4.17 0.35,0.87 7.3,4.52 13.22,8 5.91,3.48 13.3,3.22 20.17,2.78 6.87,-0.43 6.61,7.39 6.7,8.26 0.09,0.87 7.48,0.61 9.91,0.61 2.43,0 3.04,-1.13 4.43,-4.09 1.39,-2.96 10.17,-5.04 23.22,-4 13.04,1.04 32,5.91 34.44,11.3 2.44,5.39 -5.3,6 -5.3,6 0,0 0.7,1.22 3.83,4.52 3.13,3.3 5.83,2.61 12.7,4.52 6.87,1.91 2.26,3.91 4.7,10.61 2.44,6.7 -0.52,7.65 -0.52,8.61 0,0.96 3.74,2.78 8.09,3.83 4.35,1.05 1.91,6.52 -0.17,6.52 -2.09,0 -10.7,-3.48 -13.65,-5.04 -2.96,-1.57 -4,-1.83 -1.91,-5.65 2.09,-3.83 -7.57,-2.96 -8.52,-7.48 -0.95,-4.52 -3.13,-9.13 -5.57,-9.13 -2.43,0 -4.26,2.43 -8.78,1.91 -4.52,-0.52 -9.57,-4.26 -10.35,-5.22 -0.78,-0.96 -4.7,-0.61 -8.61,-0.96 -3.91,-0.35 -6.52,-5.3 -6.52,-5.3 0,0 -3.57,1.57 -10.26,1.91 -6.7,0.35 -7.39,3.65 -9.31,3.74 -1.91,0.09 -8.87,-0.09 -7.65,2.17 1.22,2.26 -2.87,1.74 -2.87,2.43 0,0.69 3.48,2.09 13.57,6.96 10.09,4.87 8.35,4.43 8.09,4.7 -0.26,0.26 2.26,4.87 12,4.96 9.74,0.09 17.48,8.7 14.17,8.87 -3.3,0.17 -3.22,6.61 -5.04,6.78 -1.83,0.17 -7.39,1.22 -7.83,3.04 -0.44,1.83 -2.26,2 -5.22,0.43 -2.96,-1.57 -18.09,-3.48 -19.57,-3.83 -1.48,-0.35 -3.04,-8.17 -9.22,-11.91 -6.17,-3.74 -9.13,0.35 -13.22,-2.43 -4.09,-2.78 -14.17,0.26 -18.44,0.43 -4.26,0.17 -11.3,0 -12.26,4.26 -0.96,4.26 -2,15.57 4.26,15.65 6.26,0.09 6.61,1.48 10.09,4.26 3.48,2.78 2.52,5.3 8.09,6.17 5.57,0.87 9.57,7.3 18.26,12.09 8.7,4.78 15.04,5.57 17.22,6.09 2.17,0.52 1.74,7.65 4.26,8.61 2.52,0.96 6.52,5.48 4.87,10.44 -1.65,4.96 -10.44,4.7 -16.96,4.7 -6.52,0 -11.48,14.61 -16,16.61 -4.52,2 -2.52,6.43 -3.04,10.52 -0.52,4.09 -2.96,3.39 9.48,7.65 12.44,4.26 12.52,16.96 18.61,17.74 6.09,0.78 10.87,5.91 11.57,9.39 0.7,3.48 -2.44,6.26 0,9.04 2.43,2.78 0.35,6.78 1.91,6.96 1.56,0.17 2.35,2.52 6.7,7.04 4.35,4.52 12.96,6.44 17.83,5.22 4.87,-1.22 15.04,-2.17 21.65,-2.87 6.61,-0.7 14.06,-0.15 15.67,-0.15 1.62,0 3,0 6.59,4.04 3.58,4.05 0.69,1.96 -0.58,3.81 -1.27,1.85 0.46,1.04 1.04,4.16 0.58,3.12 -3.93,6.01 -4.51,5.89 -0.58,-0.12 -2.31,-3.81 -4.51,-4.16 -2.2,-0.35 -4.28,-1.73 -4.39,-4.85 -0.12,-3.12 -5.66,-2.08 -13.41,-5.55 -7.74,-3.47 -12.37,1.85 -13.87,3.58 -1.5,1.73 -5.09,6.82 4.16,6.82 9.25,0 13.41,6.36 14.56,10.63 1.16,4.28 7.17,0.92 10.86,7.86 3.7,6.93 6.59,3 7.86,6.01 1.27,3 2.54,3.81 2.54,3.81 0,0 -3.81,-0.23 -8.9,3.47 -5.09,3.7 -3.7,8.09 -3.47,11.44 0.23,3.35 -3,8.78 -2.2,10.29 0.81,1.5 1.16,6.24 2.2,6.24 1.04,0 5.78,-0.69 10.05,1.73 4.28,2.43 4.51,2.54 10.63,1.73 6.13,-0.81 8.55,-0.23 13.29,-0.23 4.74,0 13.41,0.12 17.22,-7.63 3.81,-7.74 6.93,-2.77 11.56,-1.73 4.62,1.04 14.79,-2.2 14.91,-4.85 0.12,-2.66 -0.23,-5.43 5.78,-12.48 6.01,-7.05 16.53,-2.77 16.64,-5.32 0.12,-2.54 -1.96,-1.73 -5.32,-4.51 -3.35,-2.77 -4.85,-3 -6.59,-6.47 -1.73,-3.47 -9.01,-5.78 -11.79,-7.17 -2.78,-1.39 -5.43,-8.32 -5.43,-8.32 l -0.23,5.78 c 0,0 -8.78,-6.24 -9.48,-8.21 -0.69,-1.96 1.85,-9.82 11.9,-11.33 10.05,-1.5 32.01,-3.24 42.76,-6.24 10.75,-3 21.5,-3.7 28.31,-3.93 6.82,-0.23 19.18,-4.16 19.3,-6.01 0.12,-1.85 0.12,-6.93 3.24,-8.21 3.12,-1.27 7.28,-2.89 17.57,-2.89 10.29,0 15.25,0.58 26.7,0.58 11.44,0 21.38,-3.58 21.38,-3.58 0,0 -12.94,9.82 -20.69,10.75 -7.74,0.92 -13.29,0.12 -13.41,3.24 -0.12,3.12 5.43,4.39 5.43,4.39 l -0.92,10.29 c 0,0 0,0 -6.82,0 -6.82,0 -18.03,-0.12 -26.58,4.05 -8.55,4.16 -9.13,2.66 -27.39,2.54 -18.26,-0.12 -25.31,4.39 -30.51,4.62 -5.2,0.23 -8.32,-3 -8.32,-3 0,0 -1.96,1.16 -5.2,2.08 -3.24,0.92 -9.01,-0.35 -6.36,0.23 2.66,0.58 4.16,5.2 8.21,6.93 4.04,1.73 9.48,4.28 12.71,6.7 3.24,2.43 0,0 7.4,1.16 7.4,1.16 32.71,7.4 36.06,10.17 3.35,2.77 3.47,4.16 6.01,4.28 2.54,0.12 6.36,1.62 4.74,1.62 -1.62,0 -15.49,-0.81 -22.65,1.62 -7.17,2.43 -8.78,1.73 -14.45,0 -5.67,-1.73 -7.28,-1.73 -10.98,2.08 -3.7,3.81 -12.71,7.17 -21.26,7.05 -8.55,-0.12 -10.17,3.58 -10.17,7.28 0,3.7 3.58,6.7 -6.01,11.44 -9.59,4.74 -16.73,4.13 -16.73,4.13 0,0 -3.44,6.31 -13.49,12.34 -10.05,6.03 -19.52,8.32 -29.71,12.49 -10.19,4.17 -29.99,4.16 -29.99,4.16 0,0 -3.65,0.37 -3.36,2.84 0.29,2.47 2.09,2.38 5.81,2.66 3.71,0.29 4.09,3.62 6.19,3.33 2.09,-0.29 6.38,-0.86 11.23,-0.76 4.85,0.09 8.85,0.86 10.09,1.62 1.24,0.76 1.62,3.05 7.33,4.19 5.71,1.14 3.24,4 4.19,5.61 0.95,1.62 5.52,6.76 5.52,6.76 0,0 -4.76,1.43 -11.71,2.86 -6.95,1.43 -9.33,3.52 -16.08,3.71 -6.76,0.19 -11.33,4.09 -15.8,6.19 -4.47,2.09 -8.37,4.95 -3.33,7.9 5.04,2.95 8.09,6.76 12.85,8.09 4.76,1.33 2.86,1.62 12.28,2.76 9.42,1.14 7.99,9.23 7.99,9.99 0,0.76 1.9,3.52 5.42,8.28 3.52,4.76 2,9.9 0.86,9.61 -1.14,-0.29 -2.86,-2.95 -8.66,-2.86 -5.81,0.1 -8.76,5.04 -8.76,5.04 0,0 -2.19,0.48 -5.9,-0.38 -3.71,-0.86 -10.09,3.24 -19.32,5.81 -9.23,2.57 -20.84,-0.95 -31.12,-0.95 -10.28,0 -9.99,6.38 -12.85,6.47 -2.86,0.1 -9.52,1.33 -8.85,8.95 0.67,7.61 8.56,7.71 14.18,9.23 5.61,1.52 3.24,1.9 10.94,1.14 7.71,-0.76 17.32,2.19 22.94,-0.48 5.61,-2.66 5.14,-1.71 8.95,-1.14 3.81,0.57 10.75,2.38 18.46,0.19 7.71,-2.19 7.61,-0.95 12.75,0.19 5.14,1.14 12.09,1.43 18.18,1.14 6.09,-0.29 8.47,3.52 11.99,6 3.52,2.47 5.71,-0.38 5.71,-0.38 0,0 0.67,1.33 0.95,4.38 0.29,3.05 2.47,3.24 10.09,3.24 7.61,0 12.09,3.9 17.23,3.9 5.14,0 11.71,-6.47 17.8,-6.57 6.09,-0.1 8.56,-4.47 16.18,-4.95 7.61,-0.48 7.9,1.81 10.56,1.81 2.66,0 8.37,-3.81 11.52,-2.57 3.14,1.24 4.57,3.43 9.42,3.33 4.85,-0.09 3.9,2.57 7.52,5.04 3.62,2.47 6.47,2.86 11.61,0.57 5.14,-2.28 15.89,-5.23 23.51,-7.23 7.61,-2 9.52,1.33 12.18,1.33 2.66,0 11.61,-0.29 13.89,0.95 2.28,1.24 9.71,1.9 10.18,1.9 0.47,0 9.14,-7.9 10.28,-15.13 1.14,-7.23 3.14,-5.23 6.28,-9.42 3.14,-4.19 2.86,-9.61 4.66,-19.51 1.81,-9.9 0.19,-18.46 1.43,-22.65 1.24,-4.19 2.38,-11.23 4.76,-20.27 2.38,-9.04 2.38,-9.42 2.85,-22.46 0.48,-13.04 -2.76,-9.33 -2.95,-16.37 -0.19,-7.04 6.38,-8.18 7.14,-16.66 0.76,-8.47 -4.38,-9.04 -4.38,-13.89 0,-4.85 4.28,-7.14 5.14,-15.89 0.86,-8.76 0.57,-17.04 3.33,-23.32 2.76,-6.28 5.14,-9.33 5.14,-22.75 0,-13.42 1.33,-12.56 1.33,-21.13 0,-8.57 -2.76,-7.9 -2.86,-10.66 -0.1,-2.76 -0.76,-13.89 -4.38,-14.47 -3.62,-0.57 -4.85,-0.48 -5.62,-4.57 -0.76,-4.09 -7.04,-4.66 -7.04,-6.57 0,-1.91 -2.47,-2.66 -1.33,-7.61 1.14,-4.95 0.29,-5.61 -0.29,-11.33 -0.57,-5.71 -2.19,-9.23 -0.29,-18.08 1.9,-8.85 -2.19,-15.61 -4.57,-17.99 -2.38,-2.38 -2.28,-2.38 -6.38,-6.66 -4.09,-4.28 -15.45,-4.32 -15.45,-4.32 l -2.47,-5.15 c 0,0 1.61,-1.18 3.33,-1.93 1.72,-0.75 4.18,-2.04 5.58,-3.54 1.39,-1.5 5.79,-1.5 10.62,-5.69 4.83,-4.18 15.77,-8.91 27.04,-19.63 11.27,-10.73 13.95,-9.66 21.57,-22.21 7.62,-12.55 11.48,-16.84 14.59,-23.82 3.11,-6.97 3.76,-6.76 5.26,-12.45 1.5,-5.69 2.58,-5.04 3,-12.87 0.43,-7.83 3.43,-7.72 3.11,-10.94 -0.32,-3.22 0.32,-2.68 0.97,-7.19 0.64,-4.51 0.21,-5.04 1.18,-7.19 0.99,-2.07 -2.02,-10.33 -0.41,-13.23 z m -403.26,-57.72 c -3.32,0.08 -4.19,2.93 -5.46,2.93 -1.27,0 -14.8,-0.24 -14.8,-0.24 -2.85,-0.08 -0.08,-2.06 4.91,-2.53 4.98,-0.47 9.65,-2.69 16.22,-2.29 6.56,0.38 2.45,2.05 -0.87,2.13 z m 98.08,127.28 c 2.38,-0.37 -1.86,-3.97 -0.3,-4.51 3.49,-1.21 5.07,3.29 5.68,5.55 0.61,2.26 -0.24,3.55 1.34,4.89 1.59,1.34 1.71,2.08 2.02,4.22 0.31,2.14 1.65,1.83 1.34,3.24 -0.31,1.41 -0.61,1.1 0.12,4.52 0.73,3.42 -5.56,1.59 -7.03,-2.38 -1.47,-3.97 -2.93,-5.07 -5.75,-8.5 -2.8,-3.42 0.2,-6.66 2.58,-7.03 z m 7.41,46.22 c 0,0.94 -0.93,1.7 -2.08,1.7 -1.15,0 -2.08,-0.76 -2.08,-1.7 0,-0.94 0.93,-1.7 2.08,-1.7 1.15,0 2.08,0.77 2.08,1.7 z m -19.31,-123.68 c -1.72,0 -1.02,-3.13 -6.97,-3.05 -5.95,0.08 -8.69,2.82 -9,-0.63 -0.31,-3.44 4.15,-6.42 7.83,-7.2 3.68,-0.78 0.47,-5.09 7.67,-4.93 7.2,0.16 11.19,-2.35 15.03,-2.35 3.84,0 3.44,0.86 5.95,4.54 2.5,3.68 1.13,2.78 1.13,2.78 0,0 -5.51,-1.45 -8.25,1.84 -2.74,3.29 -1.64,4.31 -1.02,6.11 0.63,1.8 0.16,3.6 -2.51,2.97 -2.66,-0.63 -8.14,-0.08 -9.86,-0.08 z m -15.05,141.02 c -7.48,0 -12.18,4.61 -15.84,2.87 -3.66,-1.74 -8.62,-6.88 -10.01,-7.48 -1.39,-0.61 -14.19,0.7 -15.14,-2.61 -0.96,-3.31 -7.48,-0.26 -7.66,-6.88 -0.17,-6.61 8.09,-5.22 10.36,-4.79 0,0 1.13,1.57 2.35,2.79 1.22,1.22 3.05,0.7 10.36,0.61 7.31,-0.09 10.18,-0.26 13.92,-0.96 3.74,-0.7 10.53,-6.18 11.92,-6.18 1.39,0 12.71,4.09 18.19,6.44 5.48,2.35 2.87,-0.7 6.61,-1.57 3.74,-0.87 2.96,4.18 -0.09,4.96 -3.05,0.78 -4.35,2.52 -4.61,8.7 -0.26,6.18 5.13,3.74 4.44,5.57 -0.69,1.83 -3.83,10.27 -3.83,10.27 h -3.05 c 0,0 -2.7,-6.96 -5.83,-6.96 -3.13,0.01 -4.61,-4.78 -12.09,-4.78 z m 37.36,77.61 c -4.47,-0.96 -5.08,-1.58 -12.08,0 -7,1.58 -17.42,1.58 -17.42,1.58 -2.36,-0.26 -0.61,-2.45 0.7,-4.9 1.31,-2.45 0.35,-4.38 0.35,-8.05 0,-3.68 -3.94,-7.62 -4.47,-10.94 -0.52,-3.33 1.66,-8.93 -0.88,-11.29 -2.54,-2.36 -2.8,-4.64 1.05,-4.99 3.85,-0.35 11.82,-3.24 13.31,-6.65 1.49,-3.41 -1.58,-6.83 -1.58,-6.83 0,0 0,-1.49 3.68,-1.66 3.68,-0.18 3.85,1.93 11.99,4.03 8.14,2.1 11.21,-1.75 11.21,-1.75 0,0 0.61,4.2 -1.75,5.6 -2.36,1.4 -0.7,4.2 -0.7,6.13 0,1.93 0.09,5.43 -4.03,3.85 -4.11,-1.58 -3.15,2.71 -0.88,4.55 2.28,1.84 -0.35,6.74 5.08,7.7 5.43,0.96 -1.75,9.02 -2.1,11.03 -0.35,2.01 4.82,5.6 6.3,10.51 1.5,4.88 -3.31,3.04 -7.78,2.08 z m 135.87,221.97 c -4.25,0.85 -8.75,-1.34 -15.07,-3.04 -6.32,-1.7 -10.33,-2.67 -13.74,-3.28 -9.58,-1.71 -9.72,1.58 -11.91,3.65 -2.19,2.07 -4.01,2.43 -8.39,0.61 -4.38,-1.82 -4.5,-3.77 -2.31,-4.62 2.19,-0.85 1.22,-4.38 -6.08,-6.08 -7.3,-1.7 -11.06,-4.86 -16.17,-7.66 -5.11,-2.8 -8.99,-5.83 -6.08,-6.69 2.92,-0.85 0.85,-6.81 8.27,-6.56 7.41,0.24 14.95,5.96 19.69,5.59 4.74,-0.36 14.95,1.46 19.57,2.8 4.62,1.34 14.59,2.31 17.5,3.65 2.92,1.34 8.51,-1.09 13.49,2.67 4.98,3.77 2.31,9.12 4.98,11.06 2.69,1.94 0.51,7.05 -3.75,7.9 z m 72.9,-118 c 2.87,-3.25 5.07,-5.46 4.98,-1.63 -0.1,3.83 2.87,8.62 2.49,10.63 -0.38,2.01 -1.91,3.35 -2.68,11.58 -0.77,8.23 -1.44,22.78 -1.44,31.3 0,8.52 -0.19,8.14 -1.05,11.2 0,0 -2.97,12.16 -4.4,12.16 -1.44,0 -0.77,-3.45 -3.54,-7.18 -2.78,-3.73 -2.97,-7.08 -1.53,-9.86 1.44,-2.78 1.24,-23.55 1.82,-28.91 0.57,-5.36 0.86,-14.65 2.2,-18.09 1.34,-3.45 0.28,-7.95 3.15,-11.2 z m -79.4,-390.83 c 0.22,0.61 -3.23,2.06 -3.23,2.06 -0.94,-1.61 3.01,-2.67 3.23,-2.06 z m 3.12,4.73 c 2.22,0 1.39,2.89 -2.61,2.17 -4,-0.72 -2.61,-3.39 -1.33,-3.34 -0.01,0 1.71,1.17 3.94,1.17 z m -48.06,3.96 c 0,0 17.74,30.08 19.84,32.6 2.1,2.52 4.21,1.83 4.21,-1.49 0,-3.33 -0.54,-4.89 -5.23,-19.64 -4.69,-14.74 -16.17,-38.73 -16.17,-38.73 0,0 4.42,5.3 8.42,8.83 4.01,3.53 7.81,8.56 8.29,9.85 0.48,1.29 4.01,2.92 4.01,2.92 l 1.02,-0.34 -1.9,-2.92 c 0,0 3.4,-2.65 3.8,-2.65 0.41,0 7.47,11.82 7.68,13.59 0.2,1.77 3.87,6.52 6.32,6.59 2.45,0.07 6.39,9.58 8.29,11.41 1.9,1.83 2.24,-1.83 2.24,1.97 0,3.8 -2.92,3.8 -4.42,1.83 -1.49,-1.97 -2.99,5.03 -2.99,5.03 0,0 -0.2,-1.56 -1.22,-3.26 -1.02,-1.7 -6.59,-1.63 -6.59,-0.95 0,0.68 2.31,4.35 2.31,4.35 0,0 0,0.95 0,2.38 0,1.43 7.41,16.1 9.51,16.38 2.11,0.27 4.01,-1.16 8.29,-1.36 4.28,-0.2 7.88,0.27 10.06,2.72 2.17,2.45 0.88,5.03 -2.24,2.45 -3.13,-2.58 -4.69,-2.45 -3.74,3.13 0.95,5.57 2.45,5.84 4.69,4.21 2.24,-1.63 4.62,0.68 2.38,2.58 -2.24,1.9 -1.43,6.73 4.08,6.93 5.5,0.2 3.74,-3.87 3.8,-4.76 0.07,-0.88 3.06,-1.63 3.6,3.6 0.54,5.23 -0.54,9.78 -2.51,12.71 -1.97,2.92 -3.67,2.31 -3.33,3.13 0.34,0.82 -1.22,5.71 -2.85,3.47 -1.63,-2.24 0.61,-2.51 0.95,-4.21 0.34,-1.7 -3.87,-2.58 -3.87,-4.28 0,-1.7 2.79,-0.34 4.76,1.83 1.97,2.17 2.92,-1.22 3.33,-3.87 0.41,-2.65 -0.75,-4.55 -4.69,-5.5 -3.94,-0.95 -2.65,5.03 -6.45,8.29 -3.8,3.26 -6.05,3.47 -6.05,3.47 0,0 2.72,-7.61 6.66,-8.43 3.94,-0.82 0.95,-3.33 -2.11,-2.79 -3.06,0.54 -2.24,4.76 -5.78,4.82 -3.53,0.07 -4.01,1.9 -4.01,1.9 l -0.28,-2.56 -3.98,-1.71 -1.33,2.75 c 0,0 -2.75,-0.28 -3.22,-3.13 -0.47,-2.84 1.42,-3.03 1.42,-3.03 l -3.98,0.28 c -7.96,-6.25 -13.64,-18.1 -13.93,-18.1 -0.28,0 -9.66,15.92 -9.85,21.98 -0.19,6.06 0.66,8.72 -1.42,9 -2.08,0.28 -4.17,-0.95 -5.87,-9 -1.71,-8.05 -2.18,-18.19 -1.89,-31.64 0.28,-13.45 1.33,-20.46 1.33,-20.46 l -9.76,-19.9 z m 52.05,29.16 c 3.54,-0.04 2.62,3.67 0.39,3.8 -2.23,0.13 -3.69,-3.76 -0.39,-3.8 z m 6.82,-10.01 c 2.32,-0.79 6.56,4.15 6.56,4.15 l -2.58,2.19 c 0,0 -3.67,-3.06 -4.9,-3.06 -1.22,-0.01 -1.4,-2.5 0.92,-3.28 z m 10.37,33.81 c 2.8,-1.24 3.28,0.59 3.23,2.2 -0.05,1.61 -1.88,2.42 -1.88,2.42 -2.64,0.81 -4.15,-3.38 -1.35,-4.62 z m 13.6,-0.75 c 2.85,-1.02 4.73,0.16 4.41,2.15 -0.32,1.99 -3.39,3.23 -6.88,1.18 -3.49,-2.04 -7.04,-1.13 -7.04,-4.25 0,-3.12 3.76,-2.69 3.92,-4.19 0.16,-1.5 1.24,-5.21 1.99,-1.94 0,0 0.11,0.48 -0.11,3.44 -0.21,2.96 0.86,4.63 3.71,3.61 z m -1.77,12.2 c -2.47,-1.83 -2.16,-5.89 -0.16,-4.19 3.92,3.33 2.63,6.02 0.16,4.19 z m -64.13,218.76 c -2.19,1.14 -0.05,6.52 -4.71,6.56 -4.66,0.05 -4.52,-1.38 -8.18,-2.85 -3.66,-1.47 -9.85,-1.76 -9.85,-6.99 0,-5.23 -3.47,-4.09 -3.57,-7.66 -0.1,-3.57 -0.38,-5.28 -1.05,-7.61 -0.67,-2.33 0.62,-6.66 -2,-7.75 -2.62,-1.09 -2.14,3.09 -6.8,6.42 -4.66,3.33 -4,12.13 -11.46,12.46 -7.47,0.33 -8.85,5.09 -13.84,5.18 -4.99,0.1 -10.18,-0.05 -14.84,-3.66 -4.66,-3.61 -3.9,-5.85 -2,-7.8 1.9,-1.95 0.48,-5.95 1,-7.13 0.52,-1.19 3,-3.47 -0.57,-3.71 -3.57,-0.24 -7.32,-5.76 -5.18,-7.94 2.14,-2.19 -0.43,-5.37 5.09,-5.99 5.52,-0.62 8.18,3.33 11.94,4.71 3.76,1.38 4.99,3.57 7.18,1.52 2.19,-2.05 0,0 -0.43,-6.09 -0.43,-6.09 -2.05,-3.76 -2,-7.32 0.05,-3.57 2.57,-1.66 2.57,-4.42 0,-2.76 3.8,-2.9 6.37,-1.66 2.57,1.24 3.23,0.9 6.52,0.67 3.28,-0.24 5.33,-1.76 5.52,-4.09 0.19,-2.33 2,-5.04 6.99,-5.99 4.99,-0.95 9.47,5.28 9.56,7.9 0.09,2.62 0.43,5.34 2.36,7.1 1.92,1.76 1.22,8.33 -4.36,8.73 -5.57,0.4 -2.42,3.96 0.65,6.3 3.07,2.34 5.25,-0.24 5.25,-2.75 0,0 -0.38,-1.6 2.1,-1.65 2.47,-0.05 3.09,3.28 2.66,6.52 -0.43,3.23 0.86,6.33 3.52,6.37 2.66,0.05 4.09,5.23 8.18,4 4.09,-1.24 2.81,2.76 1.09,4 -1.71,1.24 -2.62,5.37 -0.19,7.37 2.43,2 -1.28,3.04 0.48,3.76 1.77,0.68 4.19,2.35 2,3.49 z m -45.48,-67.13 2.19,-1.8 5.03,6.7 -1.48,1.8 z m 54.48,41.41 c 0,0 -3.88,-2.42 -3.64,-3.64 0.24,-1.21 -0.32,-4.28 -2.58,-3.31 -2.26,0.97 3.15,3.88 1.78,5.25 -1.37,1.37 -2.1,1.78 -5.17,3.23 -3.07,1.45 -4.2,-1.7 -6.06,-3.63 -1.86,-1.94 -5.9,-1.21 -5.41,-5.82 0.48,-4.6 7.11,-3.07 8.89,-2.99 1.78,0.08 0.57,-3.31 4.28,-1.45 3.72,1.86 8.64,1.78 8.08,5.9 -0.57,4.12 -1.7,3.63 -1.7,3.63 z m 53.72,-1.14 c -0.81,0 -1.62,0.16 -8.08,0.4 -6.46,0.24 -12.68,1.78 -15.59,0.73 -2.91,-1.05 -13.49,-8.24 -19.39,-8.64 -5.9,-0.4 -12.76,-4.2 -17.61,-6.62 -4.85,-2.42 -5.01,-3.55 -5.01,-3.55 l -4.77,-0.16 -0.32,-2.18 4.69,-0.65 c 0.81,-3.39 4.52,-2.26 11.23,0.89 6.7,3.15 12.76,5.01 24.88,8.72 12.12,3.72 22.37,5.49 28.76,7.67 6.38,2.18 2.02,3.39 1.21,3.39 z m -8.2,-54.83 c -7.46,-0.88 -11.09,0.29 -16.1,0.2 -5.01,-0.1 -14.04,-0.88 -16,0.88 -1.96,1.77 -3.93,4.22 -7.07,2.36 -3.14,-1.86 -8.44,-0.39 -10.11,-1.96 -1.67,-1.57 -7.56,-2.85 -10.11,-2.65 -2.55,0.2 -5.3,0.79 -10.31,-1.77 -5.01,-2.55 -6.97,-5.5 -12.37,-10.99 -5.4,-5.5 -1.96,-3.73 -1.67,-9.13 0.29,-5.4 -4.02,-3.24 -6.48,-6.28 -2.45,-3.04 -3.83,-1.28 -8.15,-1.18 -4.32,0.1 -4.42,-6.18 -10.5,-6.18 -6.09,0 -9.42,-3.14 -9.03,-7.26 0.39,-4.12 13.06,-4.22 20.22,-3.53 7.17,0.69 6.77,-0.49 10.99,-3.44 4.22,-2.94 11.78,3.34 15.31,5.79 3.53,2.45 6.97,8.15 13.55,10.01 6.58,1.87 13.74,4.52 18.85,6.38 5.1,1.87 4.42,0 4.42,0 0,0 5.1,2.36 8.15,4.61 3.04,2.26 4.61,6.18 9.82,7.46 5.2,1.28 8.83,4.81 13.84,8.15 5.01,3.34 9.91,5.89 13.06,7.85 3.14,1.96 -2.85,1.57 -10.31,0.68 z m 60.86,-52.98 h -1.35 l -1.35,0.9 v 3.59 l -2.32,1.65 -1.2,-1.57 -6.29,4.87 -1.27,-1.72 17.15,-13.33 1.65,1.95 z m 25.62,-43.72 -0.66,1.42 -3.51,-1.42 -0.09,4.45 3.13,2.18 -0.47,1.42 -4.17,-1.61 -3.6,8.91 2.46,1.61 -0.47,1.61 -2.56,-1.14 -7.67,8.24 c 0,0 -22.93,24.54 -35.81,28.42 -12.88,3.88 -43.87,3.98 -47.28,3.98 -3.41,0 -8.53,-1.8 -8.53,-1.8 v 2.18 c 0,0 14.21,4.36 23.88,3.98 9.66,-0.38 23.59,-2.56 30.22,-4.55 6.63,-1.99 9.57,-4.64 9.57,-4.64 l 0.47,2.08 c 0,0 -4.07,2.46 -4.07,4.17 0,1.71 -0.47,4.07 -0.47,4.07 l -1.42,-3.69 -0.85,0.09 -0.28,4.17 -5.4,0.09 0.76,-3.98 -1.42,-0.28 c 0,0 -2.75,2.94 -3.41,4.07 -0.66,1.14 -2.08,1.23 -6.16,1.52 -4.07,0.28 -4.45,2.27 -7.48,2.08 -3.03,-0.19 -2.37,-1.89 -2.37,-1.89 l -2.08,-0.47 c 0,0 -0.38,3.51 -5.87,3.13 -5.49,-0.38 -9.47,-3.13 -9.47,-3.13 l -0.09,-2.84 -1.8,0.09 c 0,0 1.04,2.94 -5.12,1.71 -6.16,-1.23 -8.81,-2.37 -9.19,-3.22 -0.38,-0.85 -0.38,-2.56 -0.38,-2.56 l -4.26,-0.85 -1.33,1.71 -8.81,-3.22 0.57,-2.56 c 0,0 -5.12,-3.22 -8.15,-3.7 -3.03,-0.47 -1.33,-1.42 -4.17,-2.94 -2.84,-1.52 -4.17,-2.75 -5.68,-4.83 -1.51,-2.08 -3.13,-2.56 -7.96,-8.15 -4.83,-5.59 -11.09,-10.8 -13.07,-12.6 -1.99,-1.8 -1.23,-9.76 -1.23,-9.76 0,0 -10.23,-17.72 -13.26,-33.63 -3.03,-15.92 -0.85,-48.03 3.32,-57.7 4.17,-9.66 6.22,-8.83 6.22,-8.83 0,0 8.88,12 11.12,17.61 2.25,5.61 1.54,15.86 3.65,27.65 2.11,11.79 4.8,18.48 7.41,21.45 2.61,2.97 6.09,1.89 6.09,1.89 0,0 2.87,11.61 22.03,22.39 19.16,10.78 30.53,6.71 30.53,6.71 l -2.87,-1.68 c 0,0 8.02,-3.11 13.53,-6.11 5.51,-2.99 8.74,-6.11 8.98,-6.83 0.24,-0.72 4.07,-6.71 4.07,-6.71 l 2.99,-4.67 -2.28,0.96 c 0,0 0.24,-2.51 2.16,-4.31 1.92,-1.8 1.92,-1.8 1.92,-1.8 l -1.92,-0.72 c 0,0 1.32,-2.51 1.68,-2.51 0.36,0 0.12,-3.23 -0.84,-5.63 -0.96,-2.39 -0.72,-6.83 0.48,-7.18 1.2,-0.36 -0.84,-2.75 -1.56,-4.91 -0.72,-2.16 -6.83,-15.33 -8.86,-19.4 -2.04,-4.07 -4.31,-3.71 -5.03,-4.19 -0.72,-0.48 -3.22,-4.56 -3.22,-4.56 0,0 -2.19,-0.38 -1.14,-1.81 1.05,-1.43 1.52,-1.33 1.52,-1.33 l -3.33,-3.33 v 1.62 l -2.19,-0.1 -2.86,-3.24 -0.18,0.05 c 0.35,1.35 0.45,2.87 0.06,1.86 -0.2,-0.5 -0.59,-1.01 -1.02,-1.47 0.01,0.67 -0.02,3.27 -0.76,3.27 -0.86,0 -2.09,-2.67 -1.9,-3.81 0.19,-1.14 0.86,-1.05 0.86,-1.05 0,0 0.98,0.69 1.81,1.58 0,-0.1 0,-0.16 0,-0.16 l 0.96,-0.24 c -0.16,-0.63 -0.37,-1.22 -0.62,-1.5 -0.79,-0.89 2.16,1.63 2.89,1.89 0.74,0.26 1.31,-0.32 1.31,-0.32 l -2.31,-2.58 c 0,0 -2.47,0.16 -3.52,0 -1.05,-0.16 1.63,-2.16 1.63,-2.16 l -2.89,-3.68 c 0,0 -1.16,0.68 -1.84,0 -0.68,-0.68 0.84,-2.42 0.84,-2.42 l -2.79,-3.52 c 0,0 -0.84,2.21 -2.68,1.89 -1.84,-0.32 1.89,-3.42 1.89,-3.42 0,0 -2.31,-4.31 -3.15,-5.68 -0.84,-1.37 -3.15,-3.36 -3.15,-3.36 l -3.15,2.68 2.84,2.37 2.47,-0.89 0.95,1.68 c 0,0 -2.26,2.63 -3.15,2.58 -0.89,-0.05 -1.47,-1 -2.79,-1 -1.32,0 -0.21,-3.05 -1.42,-4.15 -1.21,-1.1 -4.15,-1.52 -1.52,-3.15 2.63,-1.63 2.63,-1.63 2.63,-1.63 0,0 -1.68,-5.31 -3.58,-7.41 -1.89,-2.1 -4.1,-6.78 -4.1,-6.78 l 0.84,-2.84 -2.84,0.84 -0.68,-2.79 c 0,0 2.63,-1.79 3.31,-1.79 0.68,0 3.1,2.52 3.1,2.52 0,0 2.79,-7.05 5.57,-7.05 2.79,0 12.99,-3.63 13.3,-3.73 0.32,-0.11 -10.15,-0.79 -11.2,-0.84 -1.05,-0.05 0.26,-2.89 0.26,-2.89 0,0 9.66,-4.07 33.92,3.41 24.25,7.48 49.46,33.25 59.12,54.95 9.66,21.7 9.85,60.63 9.85,60.63 l -5.02,16.86 z"
   id="path4616" />
				<path
   class="st1"
   d="m 1645.23,1057.77 4.6,3.85 c 0,0 1.25,0.33 2.09,1.59 0.84,1.25 3.01,5.94 3.01,5.94 l 1.76,-2.42 c 0,0 0.17,-1.5 -2.17,-4.68 -2.34,-3.18 -8.11,-12.12 -8.11,-12.12 l -1.59,1.59 c 0,0 1.25,2.76 2.51,4.26 1.24,1.48 -2.1,1.99 -2.1,1.99 z"
   id="path4618" />
			</g>
		</g>
		<path
   class="st1"
   d="m 1953.83,846.38 c 0.71,0.42 9.32,-2.65 13.26,-38.45 3.93,-35.81 4.92,-67.29 4.92,-84.99 0,-17.71 -4.82,-42.79 -4.62,-57.94 0.2,-15.15 -2.46,-29.71 -3.05,-38.56 -0.59,-8.85 -12.49,-31.77 -15.35,-38.46 -2.85,-6.69 -3.15,-12.49 -9.01,-22.41 -5.86,-9.92 -15.58,-17.64 -15.71,-19.06 -0.13,-1.42 0.06,-5.86 -3.73,-6.12 -3.8,-0.26 -7.55,-3.43 -7.55,-6.05 0,-2.62 1.92,-3.33 9.37,-8.27 7.46,-4.94 8.97,-11.09 9.27,-17.84 0.3,-6.75 5.64,-9.78 9.78,-26.21 4.13,-16.43 -3.73,-27.41 -11.39,-40.11 -7.66,-12.7 -18.14,-14.92 -18.14,-14.92 l -8.57,9.47 5.85,3.63 8.06,3.53 c 0,0 2.22,0 2.22,-2.92 0,-2.92 -4.74,-11.29 -4.74,-11.29 l 6.65,5.14 c 0,0 6.95,9.07 7.06,12.6 0.1,3.53 -5.34,2.52 -11.09,2.52 -5.74,0 -6.75,-2.12 -10.28,-1.81 -3.53,0.3 -3.33,1.92 2.02,4.43 5.34,2.52 2.52,4.94 2.52,4.94 v 9.37 l 9.98,2.82 c 0,0 4.03,8.47 2.62,7.56 -1.41,-0.91 -11.39,-6.45 -15.12,-4.74 -3.73,1.71 -30.44,20.16 -30.44,20.16 0,0 1.61,-7.14 -3.56,2.54 -5.17,9.68 -12.86,23.46 -16.56,26.76 -3.7,3.3 -11.23,3.7 -11.36,2.58 -0.13,-1.12 1.39,-8.92 -0.07,-14.53 -1.45,-5.62 -0.13,-7.99 1.32,-8.59 1.45,-0.59 2.31,3.37 5.68,2.58 3.37,-0.79 7.2,-3.83 11.23,-5.22 4.03,-1.39 5.09,-4.62 5.09,-7.27 0,-2.64 -3.77,-5.22 -3.77,-6.21 0,-0.99 11.23,-11.43 11.23,-11.43 0,0 -6.01,1.26 -16.05,6.87 -10.04,5.62 -22.79,12.09 -22.79,12.09 0,0 -9.83,-5.74 -9.83,-7.98 0,-2.23 1.36,-12.73 1.36,-12.73 15.06,-16.23 41.5,-25.95 41.5,-25.95 l 0.49,-2.14 c -27.02,9.33 -43.05,24.68 -43.05,24.68 0,0 -0.19,-4.37 -0.49,-4.96 -0.29,-0.58 -11.47,-5.83 -17.01,-3.6 -5.54,2.23 -8.55,8.16 -1.26,12.83 7.29,4.66 12.15,7.77 12.15,7.77 0,0 -4.18,5.25 -4.28,12.15 -0.1,6.9 2.62,6.41 4.08,6.71 1.46,0.29 1.26,7.58 1.26,9.81 0,2.24 -3.79,3.6 -4.08,7.68 -0.29,4.08 3.21,4.86 5.93,6.41 2.72,1.55 -2.43,4.57 -1.26,6.51 1.17,1.94 5.25,5.15 5.25,5.15 l 3.98,3.21 c 0,0 23.61,0.1 26.04,-4.18 2.43,-4.28 8.36,-3.4 12.63,-7.39 4.28,-3.98 7,-3.21 4.47,-0.97 -2.53,2.23 -10.01,7.39 -5.25,7.29 4.76,-0.1 16.33,-1.94 23.71,-2.43 7.39,-0.49 8.65,4.57 7.58,5.93 -1.07,1.36 -6.41,8.65 -3.69,11.27 2.72,2.62 11.56,15.26 17.59,32.85 6.03,17.59 8.84,24.2 13.02,45.19 4.18,20.99 4.18,40.72 4.18,44.8 0,4.08 0,5.35 1.94,8.16 1.94,2.82 0.1,5.05 0.1,7.87 0,2.82 0.78,16.91 0.78,20.5 0,3.6 2.04,4.47 3.4,5.93 1.36,1.46 0.97,3.21 0.97,8.55 0,5.35 -0.68,27.7 -3.6,37.8 -2.92,10.11 -2.33,15.45 -0.1,21.48 2.23,6.02 0.87,18.56 -1.36,24.88 -2.23,6.32 -7.29,25.75 -7.29,25.75 l -2.92,-1.65 -3.55,-74.96 -20.89,-149.73 -97.85,-44.46 -185.73,-20.79 c 0,0 -2.26,-2.71 -4.33,0.27 -2.08,2.98 -1.81,-1.53 -0.54,-4.06 1.26,-2.53 7.86,0.09 7.86,0.09 l 4.61,-7.32 c 0,0 -2.17,-3.43 -4.34,-3.25 -2.17,0.18 -4.33,5.87 -4.33,5.87 l -1.63,0.09 -0.18,-2.17 h -1.17 l -1.63,5.06 -1.81,-0.09 c 0,0 1.26,-7.41 5.15,-11.65 3.88,-4.24 10.3,-3.61 10.2,-5.69 -0.09,-2.08 -2.08,-6.32 -3.34,-6.32 -1.26,0 -11.56,1.72 -11.56,1.72 l -19.15,8.01 4.71,7.9 -5.89,0.94 -19.09,-12.96 c 0,0 -13.44,0.35 -14.61,1.89 -1.18,1.53 -4.36,8.96 -7.9,8.25 -3.54,-0.71 -6.48,-1.41 -6.72,1.41 -0.24,2.83 2.36,4.13 7.66,3.42 5.3,-0.71 5.89,1.89 9.19,5.89 3.3,4.01 5.42,9.08 5.42,9.08 l -2.71,3.89 4.36,3.18 c 0,0 5.78,0.47 10.25,1.06 4.48,0.59 5.78,6.36 10.02,6.48 4.24,0.12 8.72,5.42 8.72,5.42 l 0.71,6.95 c 0,0 -7.9,-5.3 -21.21,-2.83 -13.32,2.48 -28.17,18.5 -36.3,26.87 -8.13,8.37 -17.09,15.44 -24.4,21.8 -7.31,6.36 -22.04,13.79 -22.04,13.79 0,0 -4.95,-6.95 -14.14,-18.74 -9.19,-11.79 -34.84,-33.47 -44.26,-33.54 -9.43,-0.07 -7.33,1.97 -4.27,4.68 3.05,2.71 5.7,6.24 5.7,6.24 0,0 -20.69,-6.17 -24.42,-6.17 -3.73,0 -7.6,1.42 -7.6,1.42 0,0 -0.41,-1.9 -1.29,-1.9 -0.88,0 -7.26,2.03 -7.26,1.49 0,-0.54 -6.75,1.32 -7.28,0.7 -0.53,-0.62 -3.53,-0.44 -6.09,-0.27 -2.56,0.18 -6.36,4.33 -10.77,4.59 -4.41,0.26 -16.51,9.36 -21.81,11.92 -5.3,2.56 -17.66,18.19 -19.52,18.72 -1.85,0.53 -2.47,5.83 -5.65,7.42 -3.18,1.59 -3.36,7.15 -5.47,7.86 -2.12,0.71 -4.95,8.12 -6.27,8.74 -1.32,0.62 -2.21,7.59 -4.33,8.12 -2.12,0.53 -3.36,8.57 -4.86,10.07 -1.5,1.5 -2.38,6.89 -3.97,9.1 -1.59,2.21 -1.68,6.62 -1.94,8.21 -0.26,1.59 -2.47,2.91 -2.3,6.71 0.18,3.8 -3.44,3.62 -3,8.04 0.44,4.42 -0.35,4.86 -1.06,6.62 -0.71,1.77 0,7.51 -1.06,9.01 -1.06,1.5 -0.62,8.57 -1.85,10.51 -1.24,1.94 0.53,5.39 -0.71,8.3 -1.24,2.91 0.71,9.01 0.18,11.3 -0.53,2.3 1.24,5.3 1.41,7.24 0.17,1.94 -1.32,4.68 0.09,8.57 1.41,3.89 2.47,14.84 9.01,27.64 6.53,12.8 20.22,29.94 20.22,29.94 l 0.09,1.77 4.5,2.91 1.59,-0.44 c 0,0 13.78,10.95 23.93,14.13 10.15,3.18 26.05,2.12 35.76,2.21 9.71,0.09 20.57,-5.3 25.43,-6.18 4.86,-0.88 2.83,-0.79 7.51,-3.71 4.68,-2.91 6.53,-3.71 7.68,-3.71 1.15,0 3.44,-2.3 3.44,-2.3 l -0.18,-1.68 c 0,0 4.77,-1.59 13.51,-9.89 8.74,-8.3 14.25,-15.53 14.25,-15.53 0,0 1.7,0.78 6.41,1.7 4.71,0.92 9.02,-3.79 15.04,-11.51 6.01,-7.71 14.9,-28.24 21.87,-58.96 6.96,-30.72 4.86,-36.54 4.86,-36.54 0,0 2.86,-1.05 4.01,-1.05 1.14,0 5.72,-3.34 8.68,-3.91 2.96,-0.57 3.72,-6.96 3.72,-6.96 l 38.06,-19.18 -5.82,12.21 5.25,2.19 7.44,-1.72 -5.06,11.73 c 0,0 6.49,2.96 10.4,3.05 3.91,0.1 2.48,3.53 0.67,3.82 -1.81,0.29 -3.05,2.77 -3.05,2.77 l -8.39,-3.24 -0.48,3.72 4.96,1.91 -1.34,8.49 -13.45,-3.82 -20.99,52.76 c 0,0 4.96,2.48 5.82,2.48 0.86,0 3.91,-1.05 4.67,-1.05 0.76,0 5.82,2.96 6.2,5.72 0.38,2.77 1.24,3.15 -0.76,3.15 -2,0 -14.98,-6.2 -14.98,-6.2 l -7.25,3.24 -2.58,6.01 c 0,0 -2.1,9.64 -2.67,15.84 -0.57,6.2 -12.4,23.56 -12.4,23.56 l -1.43,3.62 1.24,4.67 c 0,0 -0.19,5.34 2,5.34 2.19,0 0.86,-4.77 3.34,-5.53 2.48,-0.76 2.48,0.29 2.67,4.39 0.19,4.1 -4.29,5.34 -8.39,6.58 -4.1,1.24 -5.82,1.43 -9.06,4.77 -3.24,3.34 -7.16,15.65 -1.91,30.53 5.25,14.88 21.85,33.2 24.04,33.49 2.19,0.29 2.1,2.1 2.1,3.24 0,1.14 2,5.53 6.3,5.82 4.29,0.29 1.91,4.87 1.91,4.87 0,0 1.43,1.24 7.63,5.91 6.2,4.67 8.3,6.96 8.3,6.96 l -2.96,5.06 c 0,0 -2.96,-4.67 -5.82,-2.58 -2.86,2.1 -5.25,7.54 -4.96,10.4 0.29,2.86 -0.95,4.87 1.72,10.4 2.67,5.53 1.53,7.25 3.43,10.21 1.91,2.96 6.39,4.67 8.87,5.91 2.48,1.24 5.53,6.87 5.53,6.87 0,0 -2.29,0.1 -3.72,0.1 -1.43,0 -2.58,1.43 -4.01,1.34 -1.43,-0.09 -4.01,1.81 -5.53,2.58 -1.53,0.76 -3.05,3.53 -0.86,5.72 2.19,2.19 -0.48,3.15 0.86,3.82 1.34,0.67 -0.38,2.39 2.77,2.77 3.15,0.38 0.57,3.05 2.86,3.15 2.29,0.1 2.19,1.05 5.63,1.14 3.43,0.1 7.06,0 8.4,-2.48 1.34,-2.48 2.96,0.67 4.58,-1.53 1.62,-2.19 3.72,-1.24 4.86,-1.91 1.14,-0.67 3.91,-2.1 4.77,-2.58 0.86,-0.48 2.64,-0.17 12.33,5.36 9.69,5.54 24.15,13.23 24.15,13.23 l 19.56,5.31 29.14,-15.43 19.1,-23.27 18.67,-30.09 c 0,0 -3.08,-1.54 -3.08,-2.66 0,-1.12 6.01,-3.22 6.01,-3.22 l 1.26,-3.5 123.92,3.36 c 1.54,-5.59 9.09,-11.19 9.09,-11.19 0,0 5.31,2.38 10.77,5.04 5.45,2.66 10.7,8.16 30.75,23.73 20.05,15.57 70.47,53.45 75.63,57.25 5.16,3.8 6.92,5.94 12.66,5.55 5.75,-0.39 9.55,-5.46 6.14,-10.42 -3.41,-4.97 -29.52,-27.37 -30.49,-28.15 -0.97,-0.78 -2.05,-3.12 -2.34,-3.8 -0.29,-0.68 -9.84,-9.64 -12.76,-12.27 -2.92,-2.63 -5.26,-2.05 -6.24,-2.05 -0.97,0 -18.57,-14.56 -43.59,-36.53 -25.02,-21.97 -43.03,-33.09 -55.78,-36.17 -12.75,-3.08 -69.15,-14.46 -82.58,-16.35 -13.44,-1.88 -28.33,-5.48 -28.33,-5.48 0,0 -2.91,3.17 -3.51,4.54 -0.6,1.37 -2.48,5.22 -3.34,5.22 -0.86,0 -4.96,0.26 -4.96,-2.57 0,-2.82 4.96,-4.11 4.96,-4.11 0,0 -3.34,-1.03 -3.34,-2.74 0,-1.71 1.63,-4.05 8.39,-3.46 6.76,0.59 44.75,8.15 44.75,8.15 l 8.78,-17.98 c 0,0 1.42,2.12 19.82,8.78 18.41,6.66 21.81,4.67 38.37,10.48 16.57,5.81 28.04,12.18 59.05,20.25 31.01,8.07 37.52,4.53 52.11,-3.54 14.58,-8.07 27.75,-30.44 27.75,-30.44 0,0 -5.52,-1.42 -18.83,-5.52 -13.31,-4.11 -23.08,-10.48 -23.08,-10.48 0,0 11.04,2.27 18.97,6.37 7.97,4.19 24.4,8.58 25.1,9 z m -113.07,-322.24 -6.57,-8.56 -4.81,-10.91 c 0,0 -1.41,-9.85 -1.41,-10.44 0,-0.59 4.57,0.23 9.15,0.59 4.57,0.35 9.26,-1.29 9.26,-1.29 l 0.94,4.57 c 0,0 -2.23,1.52 -4.69,7.97 -2.45,6.46 -1.87,18.07 -1.87,18.07 z m 52.54,-14.19 c -1.64,0 -5.98,-3.4 -5.98,-3.4 l -0.7,-3.17 31.54,-19.35 c 0,0 4.69,5.39 4.93,8.8 0.23,3.4 0.23,3.4 0.23,3.4 l -4.93,4.46 c 0,0 -23.45,9.26 -25.09,9.26 z m -437.35,93.56 c 5.55,9.37 8.56,11.45 11.11,15.04 2.55,3.59 7.06,11.45 7.06,11.45 l 5.44,-3.59 6.25,9.37 -13.77,8.21 c 0,0 -3.24,-7.06 -6.94,-17.12 -3.7,-10.07 -15.85,-21.63 -15.85,-21.63 l 2.08,-3.47 -7.64,-9.37 c -0.01,0.01 6.7,1.74 12.26,11.11 z m -4.24,132.02 c -0.87,1.87 -2.25,3.47 -2.96,5.41 -0.37,1.01 -0.55,2.09 -0.86,3.13 -0.61,2.03 -1.73,3.87 -2.65,5.79 -0.92,1.92 -1.6,3.92 -1.33,6.03 -1.75,0.98 -3.39,2.29 -4.31,4.07 -0.67,1.28 -0.95,2.77 -1.8,3.94 -0.7,0.97 -1.75,1.66 -2.4,2.66 -1.06,1.65 -0.87,3.85 -1.86,5.54 -0.5,0.84 -1.26,1.5 -2,2.13 -1.9,1.61 -3.92,3.32 -4.71,5.69 -0.35,1.07 -0.45,2.25 -1.11,3.16 -0.93,1.29 -2.68,1.64 -3.95,2.6 -1.23,0.93 -2.08,2.46 -2.75,3.85 -1.39,0.79 -2.77,1.58 -4.16,2.37 -0.58,0.33 -1.18,0.68 -1.56,1.22 -0.24,0.33 -0.38,0.73 -0.64,1.04 -1.07,1.31 -3.3,0.63 -4.72,1.56 -0.13,0.08 -0.25,0.19 -0.33,0.32 -0.14,0.27 -0.05,0.6 0.02,0.9 0.18,0.72 0.26,1.47 0.22,2.22 -0.01,0.29 -0.05,0.6 -0.23,0.82 -0.2,0.26 -0.55,0.36 -0.87,0.42 -1.96,0.35 -4.04,-0.23 -5.95,0.34 -0.24,0.07 -0.49,0.17 -0.65,0.37 -0.46,0.59 0.22,1.38 0.37,2.12 0.13,0.62 -0.16,1.27 -0.59,1.73 -0.44,0.46 -1,0.77 -1.56,1.08 -1.32,0.71 -2.66,1.44 -4.14,1.68 -1.96,0.32 -4.02,-0.24 -5.93,0.3 -1.58,0.44 -2.87,1.58 -4.33,2.32 -1.98,1 -4.46,1.58 -6.62,1.04 -0.1,1.09 -1.15,1.82 -2.09,2.38 -0.82,0.49 -1.64,0.98 -2.47,1.47 -0.58,0.35 -1.19,0.7 -1.87,0.72 -1.12,0.03 -2.01,-0.85 -2.95,-1.46 -2.01,-1.32 -4.75,-1.49 -6.87,-0.34 -1.05,0.57 -2.07,1.48 -3.26,1.35 -1.49,-0.15 -2.76,-1.9 -4.16,-1.35 -0.6,0.23 -0.98,0.84 -1.55,1.12 -0.65,0.32 -1.44,0.17 -2.11,-0.11 -0.67,-0.28 -1.29,-0.69 -1.98,-0.91 -1.58,-0.49 -3.34,0.08 -4.91,-0.44 -1.34,-0.45 -2.3,-1.61 -3.51,-2.34 -1.2,-0.72 -2.64,-1.01 -3.73,-1.89 -0.72,-0.58 -1.23,-1.37 -1.9,-2.01 -0.67,-0.64 -1.45,-1.43 -2.34,-1.18 -0.84,-0.62 -1.84,-1.01 -2.88,-1.12 -0.37,-0.04 -0.75,-0.04 -1.08,-0.19 -0.36,-0.16 -0.63,-0.47 -0.89,-0.77 -0.97,-1.13 -1.97,-2.3 -2.42,-3.72 -0.25,-0.79 -0.32,-1.63 -0.63,-2.39 -0.31,-0.76 -0.96,-1.48 -1.78,-1.52 -0.71,-0.03 -1.43,0.44 -2.1,0.19 -0.31,-0.11 -0.56,-0.37 -0.77,-0.63 -0.81,-0.97 -1.42,-2.1 -1.78,-3.31 -0.19,-0.62 -0.31,-1.26 -0.59,-1.84 -0.28,-0.58 -0.75,-1.11 -1.38,-1.27 -0.26,-0.07 -0.54,-0.06 -0.78,-0.17 -0.21,-0.1 -0.38,-0.27 -0.54,-0.44 -0.98,-1.08 -1.69,-2.4 -2.06,-3.81 -0.18,-0.69 -0.29,-1.41 -0.66,-2.02 -0.66,-1.07 -1.96,-1.52 -2.89,-2.36 -1.36,-1.24 -1.76,-3.17 -2.3,-4.92 -0.29,-0.93 -0.52,-1.84 -1.11,-2.61 -1.84,-2.42 0,-5.75 -2.53,-10.24 -2.53,-4.48 -2.1,-14.93 -2.1,-14.93 h 6.16 c 0,0 -2.25,-1.2 -2.25,-17.73 0,-16.53 8.42,-47.04 8.42,-47.04 h 4.08 c 0,0 1.85,-2.72 3.3,-6.31 1.46,-3.59 15.25,-22.43 15.25,-22.43 0,0 -1.36,1.94 -5.44,9.61 -4.08,7.67 -7.87,21.27 -7.87,21.27 l 4.08,1.07 c 6.02,-17.09 14.18,-24.18 14.18,-24.18 l -2.82,-3.2 0.97,-3.11 2.91,2.04 4.08,-2.23 c 0,0 -1.17,-2.23 2.62,-6.99 3.79,-4.76 9.23,-10 10,-10 0.78,0 3.88,-1.36 3.88,-1.36 l -1.46,-2.23 1.26,-1.46 1.94,2.14 c 0,0 3.11,-3.01 3.5,-4.18 0.39,-1.17 4.37,0.29 4.37,0.29 l 0.78,-5.92 1.26,0.1 0.87,3.11 c 0,0 4.95,-5.92 8.64,-6.41 3.69,-0.49 3.98,-1.46 8.55,-2.43 4.57,-0.97 6.7,-0.19 14.18,-0.19 7.48,0 12.43,1.55 15.05,1.55 2.62,0 5.63,-2.14 13.6,3.5 7.96,5.63 15.73,23.5 15.73,23.5 l 2.72,-0.19 c 0,0 1.22,-1.22 4.2,-2.37 2.98,-1.15 7.66,-4.27 7.66,-4.27 0,0 -1.56,2.78 -1.76,6.65 -0.2,3.87 1.63,6.71 1.63,6.71 0,0 -4.07,0.95 -11.19,4.61 -7.12,3.66 -14.11,7.39 -14.11,7.39 l -4.61,-6.99 c 0,0 -3.73,2.92 -14.24,8.07 -10.51,5.15 -12.61,2.58 -16.41,1.76 -3.8,-0.82 -1.7,2.71 -4,2.85 -2.31,0.14 -5.36,-1.08 -5.36,-2.98 0,-1.9 -0.81,-1.63 -4.48,-0.88 -3.66,0.75 -1.22,2.17 0.81,4.68 2.03,2.51 3.59,1.29 6.04,0.95 2.44,-0.34 5.09,4.82 5.09,4.82 l -21.84,10.24 2.98,-3.46 c 0,0 -4,2.44 -5.22,3.05 -1.22,0.61 -2.24,3.19 -5.02,4.07 -2.78,0.88 -2.37,6.17 -2.37,6.17 l 1.63,4.34 c 0,0 -1.63,2.17 -5.97,3.66 -4.34,1.49 -7.66,3.26 -7.66,3.26 0,0 3.32,8.07 4,9.02 0.68,0.95 5.63,1.36 5.63,1.36 -2.31,0.14 -3.93,6.04 -3.93,6.04 0,0 0,-0.41 -2.37,-1.83 -2.37,-1.42 -5.7,-4.88 -5.7,-4.88 l 0.47,-1.56 c 0,0 -3.26,-0.47 -3.87,-9.77 -0.61,-9.29 2.92,-8.41 5.7,-10.99 2.78,-2.58 4.75,-2.44 4.75,-2.44 0,0 -1.83,-1.97 -3.32,-1.97 -1.49,0 -4.07,3.59 -4.07,3.59 l -2.52,-1.97 c 0.62,-2.7 11.85,-9.36 19.75,-8.94 7.9,0.42 7.9,-6.13 1.04,-6.65 -6.86,-0.52 -18.85,2.39 -27.47,12.42 -8.62,10.03 -5.51,16.11 -7.91,18.37 -2.4,2.26 -1.27,6.64 -0.71,14.13 0.57,7.49 7.77,20.91 26.36,22.25 18.59,1.34 28.97,-15.41 31.15,-20.6 2.18,-5.19 7.45,-1.93 5.36,-1.51 -2.09,0.42 -1.93,2.6 -0.42,2.6 1.51,0 2.85,1.84 8.12,4.1 5.27,2.26 9.96,-1.76 9.88,-3.1 -0.08,-1.34 -3.68,-5.19 -3.68,-5.19 l 0.17,-1.17 c 0,0 3.27,2.68 4.52,3.1 1.26,0.42 1.59,1.64 3.13,1.51 1.54,-0.13 21.08,-11.44 23.39,-12.47 2.31,-1.03 2.7,-1.41 5.01,-1.41 2.31,0 3.08,1.67 3.08,1.67 0.04,2.13 0.03,4.12 0.15,6.25 0.18,3.42 -0.61,6.8 -1.39,10.14 -0.34,1.38 -0.69,2.84 -1.31,4.19 z m 1.8,-42.93 c -4.46,2.4 -40.63,20.83 -40.63,20.83 0,0 0.92,3.2 -1.95,4.23 -2.87,1.03 -1.49,6.75 -4.46,4.46 -2.98,-2.29 1.49,-4.81 -1.83,-7.67 -3.32,-2.86 -2.17,-0.8 -4.35,-0.8 -2.17,0 -4.12,0.8 -4.12,0.8 l -3.55,-3.78 2.98,-2.75 c 0,0 3.55,1.95 4.92,1.95 1.37,0 3.32,-4.01 2.29,-5.49 -1.03,-1.49 -5.95,2.06 -5.95,2.06 l -1.49,-1.26 c 2.75,-4.58 28.73,-14.76 29.64,-14.99 0.92,-0.23 1.6,-3.55 1.6,-3.55 l 29.53,-14.42 c 0,0 1.83,4.58 1.83,5.49 0,0.92 -1.14,2.17 -1.6,3.55 -0.46,1.37 1.95,2.86 0.8,4.58 -1.14,1.72 1.14,4.35 1.37,6.87 0.23,2.52 -1.83,13.73 -1.83,13.73 0,0 -1.6,-3.43 -1.6,-7.67 0,-4.24 2.86,-8.58 -1.6,-6.17 z m 27.47,33.19 c -8.58,29.53 -18.77,55.39 -18.77,55.39 l -8.35,-2.17 c 0,0 10.99,-37.17 16.57,-56.4 5.58,-19.23 6.78,-47.65 6.78,-47.65 l 4.98,1.55 1.72,-2.4 c 0,0 -0.17,-0.6 -0.17,-1.8 0,-1.2 -3.95,-15.54 -3.95,-15.54 l 6.44,-3.61 c 0,0 4.83,11.63 4.95,18.27 0.1,6.63 -1.62,24.83 -10.2,54.36 z m 282.8,154.14 c 2.47,0 13.02,1.91 32.89,5.95 19.87,4.04 32.89,11.11 41.53,16.5 8.64,5.39 15.27,11.79 15.27,11.79 0,0 -9.88,-6.51 -10.78,-6.85 -0.9,-0.34 -4.6,3.26 -10.1,2.47 -5.5,-0.79 -5.16,-2.36 -25.82,-11.34 -20.65,-8.98 -41.87,-8.53 -42.11,-8.53 -0.24,0 -1.3,-2.01 -3.54,-5.07 -2.24,-3.07 -7.26,-6.61 -7.26,-6.61 2.33,-1.03 7.45,1.69 9.92,1.69 z m -26.23,-4.09 c 8.95,0.38 21.29,12.34 20.84,12.34 -0.45,0 -16.32,-1.2 -20.99,-1.73 -4.66,-0.53 -9.25,-7 -9.25,-7 l -24.07,-0.83 -1.58,-1.13 c -0.15,-0.59 26.1,-2.02 35.05,-1.65 z m -12.53,-269.89 c 2.63,1.63 0.73,4.81 0.64,10.98 -0.09,6.17 -3.99,11.89 -8.98,11.98 -4.99,0.09 -4.08,-5.08 -1,-7.44 3.08,-2.36 3.36,-6.53 0.09,-8.71 -3.27,-2.18 -2.09,-5.17 -2.63,-7.08 -0.54,-1.91 -1.18,-4.17 -1.18,-4.17 0,0 10.43,2.81 13.06,4.44 z m -38.47,-4.36 0.09,-4.08 9.89,5.81 h -3.9 l -6.62,2.54 z m -13.06,-11.97 v 1.91 l -3.99,0.63 -5.26,5.17 c 0,0 0.54,5.44 -6.08,6.44 -6.62,1 -10.16,0.27 -10.16,0.27 0,0 0,0 -0.09,-3.63 -0.09,-3.63 -3.72,-4.9 -3.72,-4.9 l -0.82,4.99 c 0,0 0,0 1.09,1.09 1.09,1.09 0.91,3.27 0.91,3.27 l -10.07,-7.26 v -3.81 l -2.99,2.9 c 0,0 -5.35,-4.26 -6.71,-5.26 -1.36,-1 -2,-1.91 -1.72,-5.9 0.27,-3.99 -4.36,-6.08 -4.36,-6.08 8.53,-6.44 22.96,-4.26 24.59,-4.17 1.63,0.09 29.38,14.34 29.38,14.34 z m -69.87,-45.1 1.72,0.54 2.72,-1.27 c 0,0 7.35,6.81 8.35,9.25 1,2.45 8.07,6.26 9.53,7.62 1.45,1.36 15.7,12.97 15.7,12.97 0,0 -12.88,-2.9 -22.23,2.45 0,0 -5.99,-7.26 -14.52,-7.44 0,0 -2.45,-9.44 -3.54,-12.16 -1.09,-2.72 0,-4.99 -0.36,-5.53 -0.36,-0.54 -2.63,-2.09 -2.63,-2.09 z m 10.98,115.7 -6.47,-16.74 c 0,0 0.46,-3.69 0.35,-6.24 -0.12,-2.54 -4.73,-2.54 -4.73,-2.54 l -1.04,-2.43 c 5.54,-1.96 10.28,2.77 13.51,7.39 3.23,4.62 5.89,5.77 5.54,11.89 -0.35,6.13 -7.16,8.67 -7.16,8.67 z m 4.93,28.16 c 1.13,1.81 1.92,3.96 2.04,5.99 0.11,2.04 -2.04,1.92 -2.04,1.92 0,0 -1.58,-3.51 -2.94,-5.77 -1.36,-2.25 1.81,-3.95 2.94,-2.14 z M 1604.98,570.2 c 6.9,0.82 11.98,6.17 11.98,6.17 l -9.98,1.27 z m 2.07,141.75 c 0,0 20.01,89.95 19.34,89.95 -0.67,0 -16.42,-14.62 -16.42,-14.62 l -13.27,-84.55 z m 19.92,137.58 c -0.81,-0.89 -1.39,-1.99 -1.66,-3.16 1.21,-0.18 2.49,0.14 3.47,0.86 0.55,0.41 1.01,0.94 1.56,1.36 2.33,1.77 6.01,1.3 7.95,3.5 0.73,0.83 1.09,1.97 0.97,3.07 -0.68,-0.05 -1.23,0.67 -1.23,1.36 0,0.69 0.38,1.31 0.8,1.86 0.44,0.59 0.93,1.14 1.47,1.65 0.77,0.73 1.72,1.66 1.39,2.68 -0.69,0.56 -1.7,0.1 -2.54,-0.19 -1.09,-0.38 -2.26,-0.42 -3.41,-0.29 -1.34,0.15 -2.7,0.58 -3.66,1.52 -0.96,0.95 -1.4,2.51 -0.76,3.69 0.29,0.54 0.76,0.95 1.07,1.47 0.35,0.59 0.48,1.31 0.35,1.99 -0.1,0.5 -0.33,0.98 -0.31,1.49 0.03,0.91 0.88,1.64 1.78,1.8 0.9,0.16 1.81,-0.12 2.65,-0.47 0.31,-0.13 0.62,-0.28 0.81,-0.54 0.36,-0.5 0.18,-1.19 0.15,-1.81 -0.07,-1.39 0.71,-2.65 1.29,-3.91 0.58,-1.26 0.94,-2.84 0.11,-3.96 0.81,-0.18 1.66,-0.22 2.48,-0.11 0.2,0.03 0.42,0.07 0.57,0.22 0.18,0.19 0.18,0.49 0.17,0.76 -0.07,1.38 -0.14,2.76 -0.22,4.14 -0.05,0.87 -0.09,1.76 -0.42,2.57 -0.63,1.55 -2.18,2.53 -3.72,3.2 -3.88,1.69 -8.48,2.07 -12.31,0.29 0.09,2.13 0.01,4.27 -0.23,6.39 -0.07,0.62 -0.2,1.31 -0.72,1.65 -0.35,0.23 -0.78,0.24 -1.2,0.24 -1.82,0.02 -3.69,0.02 -5.37,-0.67 -1.68,-0.69 -3.13,-2.27 -3.1,-4.08 0.01,-0.3 0.06,-0.6 0.24,-0.84 0.3,-0.38 0.84,-0.45 1.33,-0.46 1.56,-0.04 3.17,0.11 4.62,-0.46 1.45,-0.57 2.68,-2.14 2.1,-3.58 -2.3,-0.53 -4.59,0.7 -6.87,1.34 -1.11,0.31 -2.25,0.48 -3.39,0.62 -0.26,0.03 -0.55,0.05 -0.78,-0.07 -0.42,-0.22 -0.51,-0.82 -0.31,-1.25 0.2,-0.43 0.6,-0.73 0.98,-1.02 1.66,-1.28 3.2,-2.72 4.58,-4.3 0.48,-0.55 0.97,-1.17 1.02,-1.9 0.09,-1.3 -0.01,-2.61 0.01,-3.91 0,-0.37 0.01,-0.75 0.14,-1.1 0.21,-0.54 0.69,-0.91 1.12,-1.29 1.07,-0.97 1.91,-2.21 2.41,-3.58 0.56,-1.54 0.88,-3.45 2.38,-4.12 0.57,-0.26 1.22,-0.27 1.81,-0.49 0.58,-0.22 1.13,-0.8 0.98,-1.4 -0.1,-0.3 -0.34,-0.53 -0.55,-0.76 z m -0.17,82.9 -0.76,1.46 c 0,0 -6.32,0.76 -6.59,-4.65 z m -12.64,-117.57 c -0.11,-0.59 0.21,-0.98 0.76,-1 0.69,-0.02 3.21,1.15 3.28,1.87 0.03,0.3 -0.16,0.58 -0.38,0.79 -0.22,0.2 -0.49,0.36 -0.78,0.36 -0.49,0.01 -0.87,-0.39 -1.28,-0.66 -0.56,-0.36 -1.46,-0.6 -1.6,-1.36 z m 5.06,-3.52 c -0.07,0.11 -0.19,0.17 -0.31,0.21 -0.94,0.39 -1.96,0.37 -2.96,0.51 -0.76,0.11 -1.52,0.44 -2.28,0.5 -1.93,0.16 -2.81,-1.3 -1.23,-2.61 0.71,-0.59 1.43,-1.19 2.24,-1.63 0.81,-0.44 1.73,-0.73 2.66,-0.66 0.59,0.04 1.2,0.26 1.53,0.75 0.28,0.4 0.31,0.92 0.34,1.41 0.02,0.38 0.04,0.76 0.07,1.14 0.01,0.12 0.02,0.26 -0.06,0.38 z m -19.14,94.71 c -2.08,-1.25 -2.29,-3.82 -0.28,-2.64 2.01,1.18 8.05,4.51 8.05,4.51 -1.24,0.49 -5.68,-0.62 -7.77,-1.87 z m 8.4,10.41 c 0,0.35 -5.41,-0.07 -5.41,-0.07 l 3.19,-2.43 1.53,-1.73 c 0,0 0.69,3.89 0.69,4.23 z m -11.9,-86.07 c 0.32,0.11 0.71,0.42 0.52,0.7 -2.68,0.12 -5.38,-0.13 -7.99,-0.74 -1.59,-0.37 -3.16,-0.87 -4.79,-0.95 -0.4,-0.02 -0.88,0.03 -1.09,0.37 -0.18,0.29 -0.08,0.66 -0.03,0.99 0.24,1.42 -0.37,2.94 -1.51,3.82 -0.66,0.51 -1.65,0.78 -2.31,0.27 -0.57,-0.45 -0.68,-1.31 -1.26,-1.75 -0.39,-0.29 -0.91,-0.33 -1.39,-0.35 -0.1,0 -0.2,-0.01 -0.29,-0.06 -0.1,-0.07 -0.15,-0.2 -0.18,-0.32 -0.34,-1.61 1.73,-2.85 1.74,-4.5 0,-0.13 -0.02,-0.27 -0.11,-0.36 -0.11,-0.11 -0.28,-0.11 -0.44,-0.09 -0.72,0.08 -1.41,0.35 -2.1,0.56 -1.25,0.37 -2.56,0.54 -3.87,0.5 -0.63,-0.02 -1.39,-0.2 -1.56,-0.81 -0.08,-0.3 0.01,-0.62 0.17,-0.89 0.42,-0.71 1.24,-1.11 2.06,-1.23 0.37,-0.05 0.74,-0.04 1.11,-0.02 1.42,0.6 2.98,0.89 4.52,1.14 2.92,0.48 5.85,0.97 8.77,1.45 3.4,0.57 6.8,1.14 10.03,2.27 z M 1567.03,892 c -0.16,0 -0.33,0 -0.48,-0.06 -0.14,-0.05 -0.25,-0.15 -0.36,-0.25 -0.55,-0.53 -0.92,-1.22 -1.47,-1.76 -0.39,-0.39 -0.87,-0.7 -1.25,-1.11 -0.38,-0.41 -0.66,-0.97 -0.53,-1.51 0.11,-0.45 0.48,-0.79 0.9,-0.98 0.42,-0.19 0.89,-0.24 1.34,-0.26 0.71,-0.05 1.42,-0.05 2.13,-0.02 0.15,0.01 0.31,0.02 0.42,0.12 0.14,0.12 0.15,0.36 0.02,0.5 -0.19,0.18 -0.3,0.03 -0.5,0.02 -0.49,-0.03 -0.97,0.11 -1.32,0.49 -0.37,0.41 -0.49,1.03 -0.31,1.56 0.05,0.14 0.12,0.27 0.23,0.36 0.12,0.1 0.27,0.16 0.42,0.19 0.61,0.12 1.34,-0.06 1.78,0.39 0.1,0.11 0.18,0.24 0.28,0.35 0.43,0.46 1.18,0.35 1.76,0.11 0.58,-0.23 1.19,-0.57 1.8,-0.43 0.18,0.04 0.38,0.17 0.36,0.35 -0.01,0.09 -0.08,0.16 -0.14,0.22 -0.34,0.33 -0.76,0.57 -1.18,0.78 -1.21,0.58 -2.55,0.92 -3.9,0.94 z m 0.43,25.99 c 0,0 -0.45,4.92 -2.46,4.85 -2,-0.06 -2.2,-4.66 -2.2,-4.66 z m -4.71,-35.03 c -0.23,-0.03 -0.44,-0.12 -0.67,-0.15 -0.23,-0.03 -0.49,0.01 -0.62,0.2 -0.07,0.1 -0.09,0.22 -0.1,0.33 -0.04,0.47 0.05,0.95 -0.03,1.41 -0.08,0.46 -0.44,0.94 -0.91,0.92 -0.28,-0.01 -0.51,-0.19 -0.73,-0.36 -0.4,-0.31 -0.8,-0.63 -1.2,-0.94 -0.53,-0.42 -1.07,-0.85 -1.49,-1.38 -0.4,-0.53 -0.68,-1.15 -1.16,-1.61 -0.42,-0.4 -0.97,-0.65 -1.39,-1.04 -0.43,-0.39 -0.73,-1.04 -0.46,-1.55 0.26,-0.48 0.93,-0.62 1.44,-0.41 0.51,0.21 0.86,0.67 1.13,1.15 0.27,0.48 0.48,0.99 0.81,1.42 0.38,0.5 0.93,0.88 1.23,1.43 0.11,0.2 0.19,0.42 0.37,0.55 0.2,0.14 0.49,0.12 0.7,0 0.22,-0.12 0.37,-0.33 0.49,-0.54 0.29,-0.54 0.36,-1.2 0.19,-1.79 -0.18,-0.59 -0.61,-1.1 -1.17,-1.36 -0.43,-0.2 -0.93,-0.25 -1.32,-0.53 -0.48,-0.34 -0.7,-0.99 -0.62,-1.58 0.07,-0.59 0.39,-1.13 0.79,-1.57 0.45,-0.5 1,-0.9 1.37,-1.46 0.2,-0.31 0.33,-0.65 0.43,-1.01 0.07,-0.24 0.05,-0.74 0.2,-0.93 0.34,-0.45 1.24,0.23 1.58,0.46 0.52,0.35 1.04,0.7 1.56,1.05 1.09,0.75 2.2,1.54 2.94,2.64 0.34,0.5 0.59,1.05 0.85,1.6 0.57,1.24 1.14,2.47 1.7,3.71 0.18,0.39 0.36,0.78 0.4,1.21 0.06,0.57 -0.16,1.17 -0.57,1.57 -0.41,0.4 -1.01,0.61 -1.58,0.54 -0.52,-0.06 -0.99,-0.33 -1.42,-0.64 -0.31,-0.22 -0.61,-0.47 -0.8,-0.79 -0.19,-0.32 -0.27,-0.74 -0.12,-1.09 0.23,-0.54 0.88,-0.72 1.42,-0.95 0.1,-0.04 0.21,-0.09 0.28,-0.18 0.09,-0.1 0.12,-0.24 0.13,-0.37 0.03,-0.5 -0.29,-0.98 -0.73,-1.22 -0.44,-0.24 -0.97,-0.25 -1.46,-0.13 -0.49,0.12 -0.96,0.41 -1.2,0.86 -0.41,0.74 0,1.71 -0.26,2.53 z m 4.25,-66.09 c 0.06,-1.94 2.01,-1.17 3.08,-1.17 0.38,1.91 -0.67,4.27 -1.9,5.69 -1.38,1.6 -3.39,2.66 -4.4,4.51 -0.13,0.24 -0.25,0.5 -0.45,0.69 -0.2,0.19 -0.51,0.29 -0.75,0.16 -0.26,-0.14 -0.33,-0.48 -0.32,-0.77 0.02,-0.92 0.5,-1.75 0.97,-2.54 0.49,-0.83 0.99,-1.66 1.48,-2.5 0.19,-0.32 0.4,-0.66 0.74,-0.82 0.93,-0.42 2.18,0.75 2.92,0.07 -0.07,-1.22 -1.4,-2.1 -1.37,-3.32 z m 4.04,57.59 c -3.06,-2.59 -0.94,-3.82 0.18,-5.06 1.12,-1.24 0.29,-3.06 2.71,-3 0,0 4.12,3 7.06,5.88 2.94,2.88 -2.35,5.82 -3.29,7.94 -0.94,2.12 -3.12,2.88 -2.65,0.06 0.46,-2.82 -0.95,-3.23 -4.01,-5.82 z m -0.07,-15.59 c 0.12,-0.52 0.47,-0.97 0.93,-1.22 0.74,-0.4 1.62,0.26 1.73,1.04 0.07,0.48 -0.22,1.01 -0.69,1.13 -0.17,0.04 -0.35,0.03 -0.52,0.02 -0.28,-0.02 -0.56,-0.04 -0.84,-0.06 -0.13,-0.01 -0.27,-0.02 -0.38,-0.09 -0.26,-0.15 -0.29,-0.52 -0.23,-0.82 z m 9.08,8.12 c 0.04,-0.3 0.17,-0.67 0.47,-0.7 0.12,-0.01 0.24,0.04 0.34,0.1 0.66,0.39 1.15,1 1.82,1.4 0.68,0.41 1.17,1.21 0.86,2.02 -0.02,0.04 -0.04,0.09 -0.07,0.11 -0.05,0.04 -0.12,0.04 -0.18,0.03 -0.55,-0.05 -0.95,-0.51 -1.34,-0.91 -0.41,-0.41 -0.86,-0.77 -1.34,-1.08 -0.22,-0.14 -0.47,-0.29 -0.55,-0.54 -0.04,-0.14 -0.03,-0.29 -0.01,-0.43 z m -4.18,29.53 c 0.55,1.03 8.41,0.48 8.41,3.73 0,3.25 -6.19,3.57 -6.19,3.57 0,0 -4.84,-6.19 -4.84,-8.33 0,-2.14 2.06,0 2.62,1.03 z m 8.27,-30.59 c -0.33,0.18 -0.83,0.12 -0.98,-0.23 -0.14,-0.33 0.09,-0.7 0.3,-0.98 0.53,-0.69 1.05,-1.39 1.58,-2.08 0.26,-0.35 0.54,-0.8 0.33,-1.19 -0.23,-0.43 -0.86,-0.39 -1.34,-0.29 -0.18,0.04 -0.36,0.08 -0.52,0.17 -0.18,0.11 -0.32,0.29 -0.43,0.47 -0.32,0.49 -0.66,1.09 -1.25,1.16 -0.58,0.07 -1.09,-0.43 -1.68,-0.45 -0.74,-0.02 -1.25,0.71 -1.77,1.24 -0.2,0.21 -0.49,0.41 -0.76,0.29 -0.33,-0.14 -0.33,-0.61 -0.26,-0.96 0.13,-0.69 0.33,-1.44 0.9,-1.85 0.49,-0.35 1.15,-0.36 1.75,-0.31 0.6,0.05 1.22,0.15 1.8,-0.02 0.58,-0.18 1.1,-0.74 0.98,-1.34 -0.05,-0.25 -0.2,-0.46 -0.37,-0.65 -0.54,-0.62 -1.26,-1.06 -1.85,-1.64 -0.84,-0.82 -1.41,-1.93 -1.6,-3.09 -0.04,-0.25 -0.04,-0.56 0.17,-0.7 0.12,-0.09 0.28,-0.09 0.43,-0.09 0.64,-0.01 1.28,0.03 1.91,0.1 0.34,0.04 0.7,0.1 0.96,0.32 0.34,0.29 0.43,0.78 0.54,1.21 0.38,1.45 1.28,2.69 2.17,3.89 0.28,0.39 0.63,0.81 1.11,0.85 0.39,0.03 0.75,-0.2 1.07,-0.44 0.85,-0.64 1.56,-1.39 2.26,-2.17 0.47,-0.53 1.7,-1.08 1.7,0.2 0,0.51 -0.36,0.94 -0.71,1.3 -0.35,0.37 -0.73,0.77 -0.78,1.27 -0.01,0.11 0,0.23 0.06,0.31 0.1,0.12 0.27,0.14 0.43,0.14 1.28,0.03 2.57,0.04 3.85,0.03 0.1,0 0.22,0 0.29,0.09 0.1,0.12 -0.01,0.31 -0.12,0.42 -0.82,0.81 -2.11,1.1 -3.2,0.7 -0.67,-0.25 -1.42,-0.73 -2.02,-0.35 -0.5,0.31 -0.57,1.03 -1.03,1.4 -0.58,0.48 -1.54,0.19 -2.13,0.66 -0.2,0.16 -0.32,0.38 -0.45,0.6 -0.21,0.38 -0.43,0.76 -0.64,1.14 -0.16,0.34 -0.36,0.69 -0.7,0.87 z m -1.95,-30.01 c 0,-0.07 0,-0.15 0.04,-0.21 0.04,-0.05 0.1,-0.09 0.16,-0.11 0.69,-0.29 2.01,-0.6 2.62,-0.01 0.7,0.68 1.16,1.83 1.45,2.74 0.07,0.23 0.14,0.47 0.09,0.71 -0.05,0.24 -0.22,0.46 -0.46,0.49 -0.22,0.02 -0.41,-0.12 -0.56,-0.27 -0.24,-0.23 -0.45,-0.49 -0.69,-0.72 -0.48,-0.43 -1.08,-0.7 -1.61,-1.07 -0.53,-0.37 -1.01,-0.91 -1.04,-1.55 z m 7.73,14.77 c 1.13,-0.21 -0.51,2.21 -0.77,2.59 -0.19,0.28 -0.41,0.56 -0.73,0.66 -0.09,0.03 -0.21,0.03 -0.27,-0.05 -0.03,-0.04 -0.03,-0.09 -0.03,-0.13 -0.06,-0.92 0.73,-2.87 1.8,-3.07 z m -0.25,-15.9 c -0.01,-0.15 0.01,-0.32 0.13,-0.42 0.06,-0.06 0.14,-0.09 0.22,-0.11 0.45,-0.15 1.08,-0.31 1.49,-0.02 0.41,0.29 0.63,0.88 0.79,1.33 0.26,0.71 0.49,1.43 0.66,2.16 0.13,0.57 0.24,1.17 0.07,1.73 -0.38,-0.04 -0.67,-0.34 -0.86,-0.67 -0.18,-0.33 -0.29,-0.7 -0.47,-1.03 -0.29,-0.54 -0.77,-0.94 -1.2,-1.38 -0.41,-0.45 -0.8,-0.98 -0.83,-1.59 z m 0.43,33.18 c 0.76,-1.18 1.52,-2.37 2.46,-3.41 0.44,-0.49 2.31,-2.55 3.08,-2.2 0.73,0.33 -1.03,2.85 -1.43,3.24 -0.47,0.47 -1.04,0.82 -1.56,1.23 -0.54,0.43 -1.03,0.91 -1.52,1.4 -0.48,0.47 -0.95,0.95 -1.43,1.42 -0.27,-0.55 0.07,-1.17 0.4,-1.68 z m 4.78,-13.21 c -1.05,0.09 -2.12,0.62 -3.12,0.29 -0.31,-0.1 -0.62,-0.32 -0.67,-0.64 -0.07,-0.44 0.35,-0.79 0.73,-1.01 1.38,-0.81 3.41,-1.18 4.93,-0.5 0.14,0.06 0.28,0.14 0.33,0.29 0.04,0.11 0.01,0.23 -0.02,0.35 -0.08,0.31 -0.21,0.63 -0.45,0.85 -0.45,0.39 -1.13,0.32 -1.73,0.37 z m -14.35,-40.36 c 1.15,-0.09 2.01,-1.19 2.84,-1.9 0.26,-0.22 0.52,-0.45 0.85,-0.54 0.32,-0.09 0.66,-0.05 1,-0.01 0.54,0.07 1.12,0.16 1.53,0.52 0.41,0.37 0.5,1.12 0.05,1.42 -0.24,0.16 -0.54,0.15 -0.82,0.15 -1.28,0 -2.55,0.25 -3.73,0.72 -0.28,0.11 -0.59,0.26 -0.7,0.55 -0.12,0.3 0,0.63 0.11,0.93 0.39,1.14 0.47,2.39 0.22,3.57 -0.69,-0.3 -1.28,-0.84 -1.64,-1.5 -0.3,-0.54 -0.47,-1.19 -0.95,-1.58 -0.38,-0.31 -0.9,-0.4 -1.33,-0.65 -0.43,-0.25 -0.77,-0.82 -0.49,-1.23 0.56,-0.86 2.21,-0.38 3.06,-0.45 z m -0.04,-56.49 -2.96,1.43 -1.16,-0.99 4.12,-2.24 z m 5.99,66.96 c -0.17,0.2 -0.41,0.31 -0.66,0.39 -0.67,0.23 -1.43,0.28 -2.09,0.01 -0.66,-0.27 -1.2,-0.89 -1.25,-1.59 -0.02,-0.29 0.07,-0.62 0.33,-0.74 0.17,-0.08 0.37,-0.05 0.55,-0.01 0.9,0.21 1.53,0.87 2.45,0.88 0.29,0.01 0.63,0.08 0.77,0.34 0.14,0.23 0.07,0.53 -0.1,0.72 z m -56.71,-215.52 1.08,6.75 -10.27,4.75 c 0,0 -0.7,-4.81 -0.7,-5.46 0,-0.64 6.22,-4.85 9.89,-6.04 z m -15.65,53.08 -2.58,-0.77 -1.63,1.72 c 0,0 -2.4,-2.92 -4.72,-3 -2.32,-0.09 -1.63,-3.95 -4.12,-3.95 -2.49,0 -2.83,-2.66 -3.18,-3.86 -0.34,-1.2 -1.63,-4.29 -1.63,-4.29 l 31.25,-16.48 15.45,15.11 z m 27.26,-46.59 1.45,-4.99 -1.45,-3.63 -6.99,2.36 -1.27,-1.27 c 0,0 2.49,-3.47 6.94,-6.81 4.44,-3.33 13.15,-15.68 22.78,-23.39 9.63,-7.72 16.54,-6.36 22.34,-4.81 5.8,1.54 5.68,2.53 5.68,5 0,2.47 2.96,5.18 3.09,5.92 0.12,0.74 -3.83,3.09 -4.88,3.09 -1.05,0 -2.22,-1.6 -2.22,-1.6 l -5.55,2.59 -1.23,-2.35 -10.86,5.68 0.04,3.34 -4.18,2.09 -0.31,-2.04 2.22,-2.1 -0.19,-1.17 -7.72,5.31 0.62,1.17 3.21,-2.1 0.31,1.79 -7.41,4.51 -0.55,-2.24 2.09,-1.28 -0.12,-1.36 -12.93,7.31 c 0,0 -0.36,1.54 -0.27,2.72 0.09,1.18 2,3.27 2,3.27 l -2.9,5.44 z m 29.62,7.02 c 1.51,-1.13 4.21,-1.51 4.21,-1.51 l -0.22,4.7 -8.86,5.24 c 0.01,-0.01 3.36,-7.3 4.87,-8.43 z m -5.03,-24.22 7.25,-3.11 0.38,1.5 -6.66,3.32 z m 4.52,-4.3 v -2.16 l 5.18,-2.53 0.12,2.04 z m -15.92,8.64 -1.85,0.68 -0.18,-1.82 1.85,-1.13 z m -3.15,2.16 -3.83,1.48 -0.56,-1.42 4.07,-2.48 z m 0.4,21.61 -1.08,-1.68 -0.86,0.22 v 2.97 l -2.97,0.65 -3.13,-5.08 c 0,0 3.73,-4.32 8.7,-6.32 l 1.13,8.05 z m 0.74,-18.84 -0.53,-1.53 9.72,-5.31 0.53,1.56 z m 14.36,55.29 -4.64,1.2 0.77,-10.22 c 0,0 4.81,-4.21 8.67,-6.7 3.86,-2.49 10.65,-9.53 10.65,-9.53 0,0 0.34,-10.73 3.26,-10.73 2.92,0 2.58,8.84 1.97,10.47 -0.61,1.63 3,1.97 3,1.97 0,0 -0.09,40.43 -0.09,43.27 0,2.83 -9.62,-2.23 -9.62,-2.23 l -4.29,-8.24 z m 4.97,99.64 7.97,-1.7 0.09,4.57 c 0,0 -2.96,-1.08 -4.03,0 -1.08,1.08 -1.25,5.2 -5.11,5.29 -3.85,0.09 -6.27,-0.45 -6.27,-0.45 z m -43.27,114.62 c -1.24,-1.24 -4.06,-1.24 -5.29,-1.88 -1.24,-0.65 -2.24,-7.12 -2.24,-7.12 l 3.47,-1.24 c 0,0 3.53,5.59 4.35,7.59 0.82,2 2.47,4.24 2.47,4.24 0,0 -1.52,-0.35 -2.76,-1.59 z m 2.34,-53.43 h -1.88 c 0,0 2.4,4.8 1.73,4.88 -0.68,0.07 -2.1,-0.23 -4.88,-2.48 -2.78,-2.25 -14.11,-3.15 -14.11,-3.15 1.8,-2.48 8.56,-4.05 13.66,-4.28 5.1,-0.23 2.78,-3.15 1.88,-4.65 -0.9,-1.5 2.18,-1.65 2.18,-1.65 l -5.85,-3.6 4.13,-7.13 5.03,1.8 1.8,-3.6 -1.05,-0.98 -1.43,1.8 -2.03,-1.43 3,-5.1 -2.25,-1.58 1.2,-2.55 2.63,1.05 2.25,-4.65 c 0,0 -4.5,-1.65 -3.9,-4.5 0.6,-2.85 4.28,2.25 6.53,-0.23 2.25,-2.48 3.45,-1.35 4.5,-0.6 1.05,0.75 3.98,1.13 4.8,-2.4 0.83,-3.53 4.88,-7.2 4.88,-7.2 0,0 3.23,2.7 7.05,2.78 3.83,0.08 11.33,0.6 11.33,0.6 l 5.33,-6.83 0.83,0.98 -3.08,6.3 1.35,1.65 -3.23,-0.38 -1.73,3.83 c 0,0 2.48,4.58 2.78,5.25 0.3,0.68 -2.25,5.7 -2.25,5.7 0,0 -3.45,-1.8 -4.95,-1.73 -1.5,0.08 -1.88,1.73 -6.15,-0.98 -4.28,-2.7 -11.33,-8.48 -11.33,-8.48 l -1.13,1.73 c 0,0 2.63,2.93 9.61,7.13 6.98,4.2 10.81,6.08 10.81,6.08 0,0 -2.63,6.45 -3,6.45 -0.38,0 -2.78,0 -2.78,0 l -0.45,1.65 2.48,0.22 -0.6,3.45 c 0,0 -2.55,0 -10.58,-3.9 -8.03,-3.9 -11.86,-9.91 -11.86,-9.91 l -1.8,1.5 c 0,0 2.93,3.83 7.58,7.28 0.91,0.67 1.95,1.37 3.04,2.04 4.47,2.79 9.72,5.31 9.72,5.31 0,0 -4.2,6.68 -6.98,7.43 -2.78,0.75 -2.85,2.85 -2.85,6.38 0,3.53 0.52,2.85 2.78,0.3 2.25,-2.55 5.1,-2.63 6.6,-3.38 1.5,-0.75 0.98,1.5 -0.6,3.38 -1.58,1.88 -0.83,2.25 -1.88,5.63 -1.05,3.38 -5.03,-0.3 -6.68,-1.28 -1.65,-0.98 -9.68,-5.85 -9.68,-5.4 0,0.45 8.71,8.56 10.36,9.53 1.65,0.98 1.88,0.15 4.2,1.95 2.33,1.8 -0.45,2.7 -0.83,2.78 -0.38,0.07 -4.88,-3.9 -7.73,-3.9 -2.85,0 -2.85,-1.5 -5.48,-5.25 -2.63,-3.75 -7.73,-7.2 -7.73,-7.2 l -0.68,2.18 c 0,0 5.63,4.05 7.65,5.93 2.03,1.88 1.5,3.6 1.5,3.6 l -1.35,0.08 -4.35,-5.33 c 0,0 -1.2,1.13 -2.78,1.13 -1.57,0 -3.3,-4.05 -3.3,-4.05 z m 20.43,52.26 c -0.04,0.3 -0.09,0.65 -0.35,0.81 -0.12,0.08 -0.28,0.11 -0.42,0.12 -0.25,0.02 -0.5,0.01 -0.74,-0.04 -0.12,-0.02 -0.25,-0.06 -0.31,-0.16 -0.05,-0.08 -0.06,-0.18 -0.06,-0.28 0,-0.14 0,-0.28 0,-0.42 0,-0.08 0,-0.16 0.03,-0.24 0.03,-0.07 0.08,-0.13 0.12,-0.18 0.27,-0.32 0.44,-0.42 0.83,-0.36 0.29,0.04 0.79,0.1 0.9,0.43 0.02,0.11 0.01,0.22 0,0.32 z m -2.71,1.32 c 0.13,0.4 -0.11,0.83 -0.38,1.16 -0.68,0.83 -1.72,1.44 -2.8,1.36 -1.08,-0.08 -1.97,-0.83 -2.78,-1.53 -0.13,-0.11 -0.27,-0.24 -0.33,-0.4 -0.04,-0.11 -0.04,-0.24 -0.04,-0.36 0.01,-0.43 0.06,-0.94 0.43,-1.14 0.18,-0.1 0.4,-0.1 0.61,-0.1 0.71,0 1.48,-0.08 2.19,0 0.55,0.06 1.11,0.2 1.67,0.27 0.58,0.04 1.26,0.19 1.43,0.74 z m -6.95,4.96 c -0.01,0.08 -0.06,0.15 -0.1,0.22 -0.07,0.12 -0.15,0.24 -0.28,0.31 -0.12,0.07 -0.27,0.06 -0.41,0.06 -0.53,-0.01 -1.07,-0.03 -1.58,-0.19 -0.21,-0.07 -0.43,-0.17 -0.57,-0.34 -0.14,-0.18 -0.17,-0.45 -0.03,-0.62 0.15,-0.19 0.44,-0.19 0.68,-0.17 0.63,0.05 1.21,0.11 1.83,0.25 0.24,0.05 0.49,0.24 0.46,0.48 z m -4.63,4.5 c -0.42,-0.05 -0.68,0.41 -0.92,0.75 -0.14,0.2 -0.31,0.38 -0.54,0.48 -0.22,0.09 -0.51,0.08 -0.69,-0.08 -0.24,-0.22 -0.21,-0.6 -0.13,-0.91 0.1,-0.33 0.25,-0.64 0.35,-0.97 0.41,-1.25 0.16,-2.66 0.64,-3.89 0.03,-0.06 0.06,-0.13 0.12,-0.16 0.08,-0.03 0.17,0.02 0.25,0.07 0.46,0.31 0.86,0.57 1.04,1.08 0.18,0.48 0.36,0.98 0.81,1.27 0.19,0.12 0.4,0.19 0.6,0.29 0.84,0.42 1.34,1.33 1.51,2.26 0.17,0.92 0.06,1.87 -0.05,2.8 -0.02,0.19 -0.07,0.41 -0.24,0.48 -0.2,0.09 -0.41,-0.08 -0.55,-0.23 -0.66,-0.7 -1.18,-1.53 -1.52,-2.42 -0.12,-0.36 -0.31,-0.78 -0.68,-0.82 z m 6.67,93.97 c -2.91,-0.52 -3.33,-3.33 -3.07,-4.11 0,0 2.29,-1.3 3.54,-0.05 1.25,1.25 2.45,4.68 -0.47,4.16 z m -4.89,-8.27 -1.77,-1.72 c 1.04,-1.46 12.33,-3.8 12.33,-3.8 l 2.13,2.39 z m 11.85,-53.25 c -2.22,0 -6.19,-1.9 -6.19,-2.86 0,-0.96 -1.27,-3.81 2.38,-3.81 3.65,0 3.65,-0.95 3.41,-1.35 -0.24,-0.4 -11.74,-16.81 -11.74,-16.81 l 2.62,-1.9 c 0,0 2.22,4.04 3.25,6.35 1.03,2.3 8.57,11.1 9.36,12.53 0.79,1.43 3.5,1.71 3.5,1.71 0,0 -0.77,-4.29 1.07,-6.9 1.84,-2.61 6.82,-0.93 7.24,-0.6 0,0 2.38,4.12 0.32,4.52 -2.06,0.4 -5.71,-2.38 -6.66,-0.32 -0.95,2.06 1.59,4.6 1.59,5.63 0,1.03 -3.33,0.87 -3.41,2.46 -0.08,1.59 -4.52,1.35 -6.74,1.35 z m 5.95,54.76 c -2.08,0.16 -2.38,-2.46 -0.05,-2.24 1.61,0.16 2.13,2.08 0.05,2.24 z m 32.31,-19.52 c -0.74,2.91 -13.2,7.68 -13.2,7.68 l -8.32,0.69 -11,-16.11 4.94,-18.11 4.68,-4.07 c 0,0 5.54,4.25 9.01,4.25 3.47,0 9.79,2.69 14.21,2.77 4.42,0.09 5.72,-1.39 5.98,0.69 0.26,2.08 0.87,0.95 2.43,-0.09 1.56,-1.04 1.56,1.56 1.3,3.81 -0.26,2.25 -2.43,4.07 -2.43,4.07 0,0 -1.99,-1.3 -2.86,-1.3 -0.87,0 -7.62,3.64 -7.71,4.16 -0.09,0.52 0.35,8.14 0.35,8.14 l 5.11,-2.08 c 0,0 -2.08,-3.47 -2.08,-4.77 0,-1.3 4.25,-3.03 4.25,-3.03 l 1.99,4.25 c 0,0 7.71,-7.28 10.14,-8.4 2.43,-1.13 3.12,3.47 3.12,3.47 v 3.38 l -3.17,5.53 -7.04,0.74 c 0,0 -2.44,-3.18 -2.98,-1.76 -0.54,1.42 0.54,3.79 -1.69,3.66 -2.26,-0.14 -4.29,-0.48 -5.03,2.43 z m 10.19,10.1 c -0.61,0.17 -5.29,2.6 -5.29,2.6 l 1.13,-1.82 c 0,0 4.33,-4.25 5.02,-4.25 0.7,0.01 -0.26,3.3 -0.86,3.47 z m 11.49,3.43 c 0,0 -7.09,-5.32 -7.09,-7.18 0,-1.86 -2.87,-4.05 -2.62,-4.39 0.25,-0.34 9.97,9.21 9.97,9.21 z m -5.73,-68.97 c -1.6,0 -3.19,-2.29 -3.12,-2.64 0.07,-0.35 8.54,-3.89 9.92,-4.79 1.39,-0.9 -1.04,-3.4 -1.94,-2.29 -0.9,1.11 -3.12,2.71 -4.86,2.71 -1.74,0 -2.64,-4.23 -1.18,-5.62 1.46,-1.39 5.55,-3.47 7.77,-3.47 2.22,0 1.94,1.73 2.15,4.16 0.21,2.43 2.29,7.56 2.29,8.12 0,0.55 -1.18,-0.35 -1.18,-0.35 0,0 -8.25,4.17 -9.85,4.17 z m 36.98,72.94 c -1.35,1.35 -6.25,8.7 -6.25,12.41 0,3.72 -2.03,3.8 -4.73,4.9 -2.7,1.1 -8.45,3.63 -12.75,3.72 -4.31,0.08 -2.45,-2.2 -2.45,-2.2 l 10.3,-13.68 10.64,-14.19 7.6,-11.65 c 0,0 2.79,3.38 2.87,7.26 0.09,3.89 -3.88,12.08 -5.23,13.43 z m 31.16,-95.29 c -8.35,-1.2 -21.44,-7.3 -21.89,-7.67 -0.45,-0.38 -1.2,-3.16 -1.2,-3.16 0,-1.5 11.28,3.39 22.72,8.05 11.43,4.66 8.72,3.99 0.37,2.78 z m 11.74,59.56 c -0.81,0.6 -5.14,2.98 -5.52,1.46 -0.38,-1.52 1.46,-1.89 1.46,-2.22 0,-0.32 -4.65,-3.09 -4.65,-3.09 l 0.32,-1.79 c 0,0 2.22,0.54 3.95,0.49 1.73,-0.05 5.09,0.65 5.14,1.79 0.06,1.14 0.11,2.77 -0.7,3.36 z m 10.44,-135.93 c -1.54,0.95 -3.57,0.63 -5.2,-0.16 -1.63,-0.79 -3.03,-1.99 -4.64,-2.82 -2.45,-1.27 -5.27,-1.63 -8.02,-1.77 -1.77,-0.09 -3.65,-0.06 -5.15,0.88 -3.59,2.28 -2.99,8.41 -6.66,10.57 -1.03,0.6 -2.54,1.23 -2.28,2.4 0.13,0.6 0.72,0.96 1.25,1.27 4.95,2.87 9.44,6.54 13.24,10.81 1.04,1.16 2.07,2.5 2.1,4.06 -3.34,-1.47 -6.95,-2.36 -10.59,-2.6 -0.69,-0.05 -1.47,-0.04 -1.94,0.46 -0.32,0.33 -0.42,0.81 -0.47,1.27 -0.36,3.3 1.69,6.71 4.76,7.95 1.78,0.72 3.8,0.77 5.47,1.71 0.28,0.16 0.56,0.36 0.68,0.65 0.25,0.61 -0.27,1.24 -0.77,1.66 -1.23,1.02 -2.65,1.8 -4.16,2.3 -0.19,1.15 1.44,1.52 2.6,1.65 4.02,0.44 7.12,3.6 9.87,6.56 -2.74,-0.48 -5.48,-0.95 -8.21,-1.42 3.18,1.57 6.36,3.14 9.53,4.71 -2.79,-0.72 -5.63,-1.21 -8.5,-1.49 1.59,1.38 3.41,2.49 5.37,3.26 -1.4,-0.4 -3.04,0.6 -3.33,2.03 2.82,0.98 6.15,2.61 6.3,5.6 -1.82,0.19 -3.65,0.38 -5.47,0.56 -0.42,0.04 -0.9,0.13 -1.1,0.5 -0.13,0.25 -0.09,0.55 -0.04,0.83 0.29,1.71 0.58,3.42 0.87,5.13 -2.45,0.62 -5.06,-0.64 -6.79,-2.48 -1.73,-1.84 -2.77,-4.21 -3.87,-6.48 -4.34,-8.99 -10.1,-17.43 -17.75,-23.84 -1.56,-1.31 -3.87,-2.55 -5.49,-1.3 -0.67,0.51 -1.01,1.34 -1.56,1.98 -1.94,2.25 -5.64,1.51 -8.18,-0.03 -5.3,-3.22 -8.67,-8.76 -11.84,-14.1 -0.85,-1.43 -1.7,-2.86 -2.55,-4.29 -0.69,-1.17 -1.41,-2.4 -1.48,-3.76 -0.09,-1.54 0.64,-3.22 -0.13,-4.56 -0.46,-0.81 -1.34,-1.25 -2.12,-1.76 -3.08,-2.03 -4.91,-5.8 -4.61,-9.47 2.78,2.61 5.58,5.24 8.78,7.31 2.22,1.44 4.63,2.61 6.65,4.32 2.34,1.99 4.03,4.62 5.68,7.21 0.87,1.36 1.74,2.73 2.61,4.09 0.85,1.33 1.55,2.84 1.82,0.49 0.36,-3.12 0.84,-6.27 1.98,-9.22 1.36,-3.51 3.79,-6.77 7.24,-8.3 0.67,-0.3 1.38,-0.53 2,-0.91 2.24,-1.36 3.01,-4.31 5.05,-5.95 1.89,-1.53 4.5,-1.68 6.92,-1.99 9.09,-1.17 18.09,-5.54 27.04,-3.57 2.37,0.52 4.77,1.59 6.09,3.62 1.28,2.02 1.06,5.16 -1,6.43 z m 157.39,-72.58 c -0.49,-4.99 -7.91,-7.3 -10.71,-14 -2.8,-6.7 -14.85,-21.18 -14.85,-21.18 0,0 5.72,15.58 9.86,28 4.14,12.42 10.59,31.16 12.66,33.84 2.07,2.68 0.85,7.06 -2.92,4.5 -3.77,-2.56 -22.4,-3.41 -29.22,-3.77 -6.82,-0.37 -23.62,-7.18 -38.35,-7.18 -14.73,0 -33.48,3.04 -33.48,3.04 0,0 -24.35,1.34 -32.75,4.02 -8.4,2.68 -21.06,9.25 -21.06,9.25 l -13.46,-0.37 -6,3.5 -3.93,-7.15 -1.5,1 3.14,8.08 -2.98,0.99 c 0,0 -4.14,0.17 -7.62,0.33 -3.48,0.17 -19.71,22.2 -19.71,22.2 0,0 -8.43,-44.46 -12.36,-65.94 -3.93,-21.48 -3.46,-26.56 -3.46,-34.3 0,-7.74 -5.66,-28.06 -5.66,-28.06 4.33,-7.25 10.1,-13.07 5.47,-21.15 -4.63,-8.07 -15.51,-14.15 -15.51,-14.15 0,0 7.44,-6.35 9.98,-5.26 2.54,1.09 2.45,0.73 5.35,-1.09 2.9,-1.81 2.72,-0.27 8.44,-0.18 5.72,0.09 8.89,-3.81 13.25,-5.08 4.36,-1.27 11.79,-5.08 14.43,-5.63 2.63,-0.54 3.18,2.18 7.17,2.36 3.99,0.18 1,-3.9 2.72,-3.9 1.72,0 3.36,2.9 7.26,5.35 3.9,2.45 5.44,-0.27 10.8,-0.27 5.35,0 3.63,1.72 4.99,5.26 1.36,3.54 7.53,2.63 8.8,4.63 1.27,2 -5.08,3.81 -4.99,6.99 0.09,3.18 1.72,4.81 7.08,4.36 5.35,-0.45 8.53,-2.36 14.88,-2.81 6.35,-0.45 3.9,3.72 7.53,1.36 3.63,-2.36 5.53,-2.99 9.53,-1.27 3.99,1.72 4.68,-5.09 5.27,-5.24 0.59,-0.15 8.55,0.74 15.78,1.92 7.22,1.18 1.47,3.69 23.15,9.73 21.67,6.04 40.6,11.32 40.6,11.32 l 33.01,59.14 7.3,26.9 c -0.02,0.01 -7.44,-5.1 -7.93,-10.09 z"
   id="path4624" />
		<path
   class="st1"
   d="m 1635.09,855.62 c 0,0 -1.02,0.9 -0.06,1.81 0.96,0.9 2.66,3.39 2.66,3.39 0,0 -4.63,-0.45 -5.48,0.4 -0.85,0.85 -1.64,-3.28 -4.47,-3.67 -2.83,-0.4 -4.41,-3.5 -1.13,-3.56 3.28,-0.06 4.86,1.47 5.48,1.53 0.62,0.06 3,0.1 3,0.1 z"
   id="path4626" />
		<path
   class="st1"
   d="m 1578.01,939.99 c -0.54,-0.54 -1.31,-1 -1.36,-1.75 -0.01,-0.1 0,-0.2 0.05,-0.28 0.06,-0.11 0.18,-0.17 0.3,-0.21 1.35,-0.54 2.9,-0.31 4.28,-0.77 0.52,-0.17 1.05,-0.48 1.26,-0.98 0.28,-0.64 -0.06,-1.43 -0.61,-1.85 -0.56,-0.42 -1.29,-0.56 -1.99,-0.59 -0.55,-0.02 -1.11,0.01 -1.62,0.19 -0.45,0.16 -0.86,0.44 -1.25,0.72 -1.01,0.7 -2.02,1.4 -3.03,2.1 -0.46,0.32 -0.95,0.67 -1.12,1.21 -0.28,0.86 0.39,1.72 1.01,2.38 0.78,0.83 1.56,1.67 2.34,2.5 0.62,0.66 1.27,1.35 2.11,1.7 0.39,0.16 0.84,0.12 1,-0.3 0.15,-0.4 -0.16,-0.67 -0.27,-1.02 -0.37,-1.14 -0.16,-2.11 -1.1,-3.05 z"
   id="path4628" />
		<polygon
   class="st1"
   points="1321.91,702.03 1317.35,700.31 1320.56,687.75 1325.36,689.84 "
   id="polygon4630" />
		<polygon
   class="st1"
   points="1362,699.54 1360.13,698.74 1359.05,700.88 1360.87,702.38 "
   id="polygon4632" />
		<polygon
   class="st1"
   points="1360.18,704.36 1358.52,706.29 1355.79,703.18 1357.4,701.63 "
   id="polygon4634" />
		<path
   class="st0"
   d="m 1572.56,933.19 c 0,0 -3.14,2.65 -2.65,5.2 0.49,2.55 0.88,2.26 0.49,6.96 -0.39,4.7 -0.88,14.91 0.88,15.5 1.77,0.59 7.65,-5.59 12.36,-6.87 4.71,-1.28 8.04,-1.28 8.04,-1.28 0,0 4.87,11.1 5.3,17.36 0.24,3.58 9.1,11.36 11.57,12.98 2.47,1.62 7.55,2.77 7.78,-2.08 0.23,-4.85 2,-6.09 -0.15,-9.71 -2.16,-3.62 -1.54,-3.93 -4.62,-8.01 -3.08,-4.08 -7.47,-6.55 -8.78,-7.55 -1.31,-1 -4.24,-5.32 -4.24,-5.32 0,0 3.16,0.54 5.85,-2.62 2.7,-3.16 2.85,-11.71 2.85,-12.56 0,-0.85 1.08,-1.54 1.08,-1.54 0,0 11.32,11.56 16.41,13.02 5.09,1.46 14.95,2.85 14.95,-3.47 0,-6.32 -6.47,-10.86 -12.33,-13.64 -5.85,-2.77 -9.32,-1.62 -11.71,-1.54 -2.39,0.08 -4.39,-1.08 -4.39,-1.08 0,0 8.24,-17.56 8.24,-18.72 0,-1.16 -2.31,-3 -4.93,-0.85 -2.62,2.16 -2.54,0.15 -2.23,-1.62 0.31,-1.77 1.46,-9.78 1.62,-11.86 0.15,-2.08 0.46,-2.7 0.46,-2.7 0,0 3.47,3.47 7.32,3.54 3.85,0.07 5.7,0.85 5.55,3.85 -0.15,3 5.62,5.78 10.09,13.71 4.47,7.93 6.63,13.87 8.4,15.1 1.77,1.23 5.24,-2.85 4.78,-9.32 -0.46,-6.47 -8.4,-13.48 -8.32,-15.02 0.08,-1.54 5.32,-0.31 7.55,1.93 2.23,2.23 10.86,-0.39 11.4,-3.62 0.54,-3.24 -2.31,-6.93 -7.4,-6.63 -5.08,0.31 -10.55,-0.54 -10.55,-3.54 0,-3 6.63,-1.39 11.02,-1.69 4.39,-0.31 9.4,-3 10.71,-4.7 1.31,-1.69 4.39,-3.08 8.47,-2.31 4.08,0.77 9.24,2.39 9.24,2.39 0,0 -14.64,20.88 -25.42,42.45 -10.78,21.57 -14.33,36.13 -16.87,45.07 -2.54,8.94 -1.23,14.33 -4.62,14.87 -3.39,0.54 -3.7,-1.93 -9.24,2.23 -5.55,4.16 -9.94,3.31 -15.64,2.16 -5.7,-1.15 -15.56,-8.71 -23.65,-13.94 -8.09,-5.24 -10.71,-8.94 -16.18,-9.86 -5.47,-0.92 -13.94,-7.86 -19.8,-14.1 -5.85,-6.24 -15.64,-12.71 -16.18,-22.03 -0.54,-9.32 2.16,-16.56 10.09,-15.87 7.93,0.69 14.87,6.78 16.72,9.09 1.83,2.32 10.05,7.84 10.68,8.24 z"
   id="path4636" />
		<path
   class="st0"
   d="m 1612.81,880.24 c -1.84,-1.84 -7.38,4.02 -9.39,2.18 -2.01,-1.84 3.19,-12.24 3.69,-41.92 0.5,-29.68 -1.34,-56.17 -5.7,-87.86 -4.36,-31.69 -8.88,-57.39 -8.88,-69.33 0,-11.94 -0.58,-40.23 -0.35,-48.69 0.23,-8.46 2.43,-7.07 6.96,-7.19 4.52,-0.12 5.33,0.23 2.2,-4.75 -3.13,-4.99 -4.64,-9.62 -4.64,-9.62 -7.42,1.85 -13.8,7.42 -14.49,13.33 -0.7,5.91 0.23,32.93 0.23,32.93 0,0 1.04,-22.49 1.04,-24.35 0,-1.86 -0.23,-6.26 1.62,-6.38 1.85,-0.12 3.94,3.01 4.17,8.7 0.23,5.68 -0.12,40.69 -0.23,42.9 -0.12,2.2 -5.8,-0.23 -6.26,-2.2 -0.46,-1.97 -0.7,-10.9 -0.7,-10.9 h -3.25 c 0,0 1.39,4.41 -0.58,3.48 -1.97,-0.93 -4.52,-5.91 -4.41,-6.72 0.12,-0.81 4.52,1.86 4.52,1.86 0,0 -0.93,-3.13 -4.64,-4.99 -3.71,-1.85 -9.16,0.35 -9.16,0.35 0,0 0.12,-3.48 1.85,-7.65 1.74,-4.17 6.61,-6.38 7.07,-14.38 0.46,-8 3.13,-13.57 0.81,-13.57 -2.32,0 -7.65,2.09 -10.67,4.17 -3.01,2.09 -5.91,0.58 -7.3,0 -1.39,-0.58 -1.74,6.38 -0.93,10.55 0.81,4.17 2.44,8.12 2.78,10.67 0.35,2.55 2.67,1.74 2.67,1.74 0,0 -1.74,7.19 -6.84,18.55 -5.1,11.36 -8.07,18.31 -14.64,37.07 -6.57,18.77 -19.86,52.39 -19.86,52.39 l 7.26,4.87 c 0,0 3.34,-4.11 9.94,-25.99 6.59,-21.88 11.94,-37.46 14.14,-44.24 2.2,-6.78 1.62,-8.98 7.64,-16.24 6.02,-7.26 7.74,-10.7 11.37,-10.41 3.63,0.29 7.93,17.2 11.75,28.57 3.82,11.37 3.63,21.79 3.63,21.79 l -5.26,2.77 c 0,0 1.15,3.06 1.72,3.06 0.57,0 5.26,-1.15 5.26,-1.15 l 2.87,24.56 c 0,0 -4.2,0.19 -6.69,0.19 -2.48,0 -2.87,2.96 -1.24,4.2 1.62,1.24 8.22,0.48 8.22,0.48 0,0 3.34,20.26 4.78,34.4 1.43,14.14 0.38,40.23 0.29,53.8 -0.1,13.57 -1.91,29.33 -5.35,42.23 -3.44,12.9 -5.54,16.44 -13.19,18.63 -7.64,2.2 -9.94,1.72 -15.48,2.39 -5.54,0.67 -5.45,10.8 -1.43,13.19 4.01,2.39 8.03,1.62 12.23,1.72 2.94,0.07 9.11,0.23 12.55,0.32 1.64,0.04 3.13,-0.84 3.88,-2.3 1.04,-2.01 2.46,-5.37 3.59,-10.32 2.04,-8.94 1.66,-12.51 4.72,-15.7 3.06,-3.19 3.96,-0.26 3.96,0.89 0,1.15 0.26,2.3 4.34,0.77 4.09,-1.53 1.02,-5.11 2.81,-6.89 1.83,-1.81 6.84,-4.12 5,-5.96 z m -49.3,37.23 c -1.65,-0.07 -5.4,0.13 -6.06,-4.74 -0.66,-4.87 2.89,-9.93 6.66,-6.42 0,0 2.56,0.5 3.48,4.38 0.92,3.88 -2.44,6.84 -4.08,6.78 z"
   id="path4638" />
		<polygon
   class="st0"
   points="1512.56,807.44 1503.6,803.71 1518.27,763.6 1526.27,768.75 "
   id="polygon4640" />
		<path
   class="st0"
   d="m 1507.66,809.05 c 1.92,0.78 4.93,0.24 5.47,2.77 0.54,2.53 0.96,2.22 1.86,4.27 0.9,2.04 -3.97,2.71 -7.94,5.83 -3.97,3.13 -6.37,4.33 -8.12,4.15 -1.74,-0.18 -1.74,-2.22 -0.42,-6.13 1.32,-3.91 3.67,-13.29 3.67,-13.29 0,0 3.56,1.62 5.48,2.4 z m -0.06,3.43 c -3.01,-0.42 -5.35,1.8 -4.51,5.17 0.84,3.37 6.07,1.14 5.83,-1.92 -0.24,-3.07 -1.32,-3.25 -1.32,-3.25 z"
   id="path4642" />
		<path
   class="st0"
   d="m 1622.95,860.44 -0.63,1.06 c 0,0 3.57,4.01 3.57,4.94 0,0.93 -9.89,7.14 -9.89,7.45 0,0.31 0.81,3 0.81,3 0,0 5.63,2.82 7.45,6.63 1.82,3.82 8.64,5.82 8.83,3.38 0.19,-2.44 0.44,-10.7 0.44,-10.7 0,0 8.32,-2.5 9.64,-3.76 1.31,-1.25 0.56,-7.45 0.19,-11.96 -0.38,-4.51 -1.82,-6.32 -4.01,-7.01 -2.19,-0.69 -7.51,-0.88 -7.64,-0.13 -0.13,0.75 5.82,1.06 5.82,1.06 0,0 -1.25,2.75 -1,3.44 0.25,0.69 1.38,1.56 1.75,-0.38 0.38,-1.94 2.69,-1.25 2.5,0 -0.19,1.25 -2.19,1.19 -1.94,2.13 0.25,0.94 1.88,2.13 1.88,2.32 0,0.19 -0.81,0 -4.01,-0.25 -3.19,-0.25 -4.69,1.56 -4.69,1.56 l 9.58,0.31 c 0,0 -0.19,7.64 -0.25,7.89 -0.06,0.25 -3.88,2 -7.7,1.25 -3.82,-0.75 -2.75,-3.19 -4.63,-5.45 -1.87,-2.21 -6.07,-6.78 -6.07,-6.78 z"
   id="path4644" />
		<path
   class="st0"
   d="m 1932.91,764.08 c 0.69,-8.53 4.13,-42.77 3.99,-48.68 -0.14,-5.91 -4.81,-4.95 -5.09,-10.04 -0.27,-5.09 0.83,-22.42 0.83,-24.89 0,-2.48 -2.61,-3.71 -2.61,-5.64 0,-1.93 -0.41,-29.57 -5.5,-45.66 -5.09,-16.09 -3.85,-27.09 -8.53,-36.72 -4.68,-9.63 -5.5,-15.26 -10.59,-29.02 -5.09,-13.75 -7.43,-15.13 -9.08,-17.88 -1.65,-2.75 0.41,-2.89 1.1,-7.15 0.69,-4.26 0.83,-7.01 0.69,-8.25 -0.14,-1.24 -6.19,-3.3 -15.13,-0.96 -8.94,2.34 -10.18,1.51 -21.18,3.03 -11,1.51 -26.27,1.24 -26.27,1.24 0,0 -0.41,-5.09 0.55,-6.33 0.96,-1.24 -6.19,-5.23 -6.19,-5.23 0,0 0,4.95 0.96,7.7 0.96,2.75 2.48,4.13 -4.95,3.44 -7.43,-0.69 -26.82,4.81 -37.54,7.01 -10.73,2.2 -30.8,-1.65 -60.51,-4.4 -29.7,-2.75 -46.76,-1.93 -60.1,-6.46 -13.34,-4.54 -25.58,-7.15 -29.57,-9.49 -3.99,-2.34 -5.09,-2.61 -11.69,3.44 -6.6,6.05 -11.83,17.19 -11.96,19.66 -0.14,2.48 7.01,5.23 11.41,7.84 4.4,2.61 10.31,7.98 17.33,11.41 7.01,3.44 31.9,15.54 59.82,14.85 27.92,-0.69 71.79,-5.23 81.14,-4.95 9.35,0.28 38.64,19.39 56.8,32.32 18.15,12.93 46.89,40.02 50.47,43.32 3.58,3.3 3.44,8.11 5.78,12.38 2.34,4.26 -1.93,11.41 3.3,17.46 5.23,6.05 5.36,2.2 5.64,17.74 0.27,15.54 2.89,40.43 2.89,53.5 0,13.06 4.26,13.48 -0.69,39.88 -4.95,26.4 -8.11,36.44 -12.65,35.62 -4.54,-0.82 -24.34,-8.11 -42.22,-17.33 -17.88,-9.21 -21.45,-18.84 -23.79,-22.55 -2.34,-3.71 -0.55,-7.01 -6.74,-7.98 -6.19,-0.96 -11.41,-9.76 -20.9,-11.55 -9.49,-1.79 -14.99,-5.64 -26.4,-6.6 -11.41,-0.96 -14.3,-5.09 -8.8,-5.23 5.5,-0.14 10.31,-3.58 13.06,-3.71 2.75,-0.14 8.66,-0.55 8.66,-0.55 0,0 -15.95,-4.13 -33.69,-3.44 -17.74,0.69 -22.28,9.35 -22.28,9.35 0,0 7.56,-2.75 8.39,-2.75 0.83,0 0.41,3.44 -5.91,5.23 -6.32,1.79 -17.05,6.46 -23.79,18.02 -6.74,11.55 -5.5,7.84 -11.69,7.84 -6.19,0 -7.01,0 -7.01,0 0,0 4.4,-6.05 4.4,-10.59 0,-4.54 -0.14,-8.66 5.78,-11.83 5.91,-3.16 13.34,-7.29 13.34,-7.29 0,0 -13.06,3.71 -17.6,5.78 -4.54,2.07 -7.84,-2.61 -15.54,-2.06 -7.7,0.55 -12.65,4.13 -12.65,4.13 0,0 8.66,11.28 9.9,13.34 1.24,2.06 12.24,2.34 12.24,2.34 0,0 1.51,5.91 -4.81,6.74 -6.33,0.82 -2.06,6.74 -8.53,5.36 -6.46,-1.38 -7.01,-0.41 -12.38,0.41 -5.36,0.83 -14.17,3.44 -14.17,-0.41 0,-3.85 2.75,-12.1 7.29,-7.84 4.54,4.26 14.44,3.71 14.44,3.71 0,0 -1.51,-5.36 -3.16,-9.08 -1.65,-3.71 -5.64,-12.79 -5.64,-12.79 0,0 -4.68,0.55 -13.75,10.86 -9.08,10.31 -17.19,19.39 -17.6,32.59 -0.41,13.2 -2.49,26.64 -7.02,34.16 0,0 8.97,8.87 19.49,14.54 10.52,5.67 28.56,12.27 29.7,12.27 1.13,0 2.78,-5.36 1.24,-13.1 -1.55,-7.73 -2.99,-17.84 -3.09,-21.55 -0.1,-3.71 -2.89,-5.46 -4.12,-7.11 -1.24,-1.65 -0.82,-2.78 -3.82,-7.32 -2.99,-4.54 -3.82,-5.26 -3.82,-5.26 0,0 4.64,3.61 4.64,-0.1 0,-3.71 1.03,-3.09 -5.16,-6.91 -6.19,-3.82 -4.02,-5.67 -1.96,-4.64 2.06,1.03 7.32,1.65 10.62,1.55 3.3,-0.1 4.02,-2.89 0.62,-3.71 -3.4,-0.82 -3.4,-3.82 1.34,-3.2 4.74,0.62 11.81,4.39 13.91,6.41 2.1,2.02 6.7,0.16 4.36,-2.66 -2.34,-2.83 -10.74,-4.2 -12.11,-5.41 -1.37,-1.21 3.47,-2.58 9.69,-0.4 6.22,2.18 7.02,5.33 9.04,5.65 2.02,0.32 2.02,-2.74 2.1,-5.97 0.08,-3.23 3.47,-1.7 3.87,0 0.4,1.7 8.6,0.4 13.41,6.86 4.81,6.46 32.18,28.47 54.46,41.67 22.28,13.2 56.52,24.89 61.33,25.17 4.81,0.27 23.24,-5.5 27.37,-11.41 4.13,-5.91 19.25,-17.33 19.25,-17.33 0,0 -5.64,-6.74 -3.16,-6.88 2.48,-0.14 11.14,0.82 18.84,-0.55 7.7,-1.38 9.76,-4.26 9.76,-4.26 l 21.04,2.89 c 0,0 1.38,-9.76 4.68,-17.46 3.3,-7.7 4.4,-28.33 4.26,-32.04 -0.15,-3.74 -2.77,-7.59 -2.08,-16.11 z m -271.28,59.69 c 0,0 -4.56,-0.91 -8.2,-3.44 -3.65,-2.53 -5.47,-2.53 -7.19,-3.95 -1.72,-1.42 3.95,-2.23 6.28,-1.11 2.32,1.11 5.87,5.87 9.11,8.5 z"
   id="path4646" />
		<path
   class="st0"
   d="m 1706.62,833.54 c 0,0 -4.25,4.06 -4.32,4.78 -0.07,0.72 -1.7,4.38 -2.68,6.08 -0.98,1.7 -3.93,6.54 -3.93,7.07 0,0.53 1.31,4.97 0.59,6.02 -0.72,1.05 -3.53,2.09 -3.53,2.09 0,0 3.4,2.22 6.22,1.31 2.81,-0.92 6.28,-8.9 7.59,-10.4 1.31,-1.5 4.45,-6.93 6.28,-9.09 1.83,-2.16 -0.85,-2.94 -1.7,-5.04 -0.86,-2.1 -4.52,-2.82 -4.52,-2.82 z"
   id="path4648" />
		<path
   class="st0"
   d="m 1811.7,761.2 c 0,0 18.06,-0.46 24.57,-0.46 6.51,0 8.8,2.4 8.8,2.4 0,0 -4.8,-0.11 -4.8,2.97 0,3.09 0.46,5.03 -3.54,2.74 -4,-2.29 -8.46,-2.06 -12.69,-0.57 -4.23,1.49 -7.77,-0.46 -9.37,-2.86 -1.6,-2.4 -2.97,-4.22 -2.97,-4.22 z"
   id="path4650" />
		<path
   class="st0"
   d="m 1858.21,753.43 -3.77,-2.97 c 0,0 2.86,-15.66 0.69,-20.8 -2.17,-5.14 -19.89,-32.23 -24.92,-38.75 -5.03,-6.51 -7.77,-14.86 -10.4,-25.14 -2.63,-10.29 -5.26,-29.49 -6.51,-33.83 -1.25,-4.34 -1.94,-3.31 -7.31,-2.97 -5.37,0.34 -34.29,2.06 -41.37,2.29 -7.08,0.23 -7.54,-3.66 -7.31,-9.26 0.23,-5.6 3.09,-10.06 9.83,-8.8 6.74,1.26 39.2,5.94 44.57,7.66 5.37,1.72 5.03,5.03 15.2,22.97 10.17,17.94 16.69,26.86 23.54,38.86 6.86,12 17.26,37.49 20.23,49.6 2.96,12.11 -0.69,11.77 -12.47,21.14 z"
   id="path4652" />
		<path
   class="st0"
   d="m 1747.01,610.33 4,0.8 c 0,0 -3.43,11.77 -3.43,18.63 l -3.09,-0.11 c 0,0 -0.69,-5.6 -1.6,-8.69 -0.91,-3.08 3.2,-8.8 4.12,-10.63 z"
   id="path4654" />
		<path
   class="st0"
   d="m 1684.95,598.48 c -2.56,-0.38 -1.9,0.76 -1.61,4.56 0.28,3.8 -1.61,12.15 -2.18,13.1 -0.57,0.95 3.42,0.09 5.51,-2.56 2.09,-2.66 0.28,-3.32 -0.66,-3.61 -0.95,-0.28 -0.47,-3.23 0.95,-3.13 1.42,0.1 1.71,-2.28 0.38,-4.84 -1.33,-2.56 -2.39,-3.52 -2.39,-3.52 z"
   id="path4656" />
		<path
   class="st0"
   d="m 1932.64,481.87 -2.62,1.7 c 0,0 -6.28,-5.79 -10.74,-10.68 -4.46,-4.89 -8.25,-4.34 -14.23,0 -5.98,4.34 -21.5,11.84 -23.02,14.55 -1.52,2.72 -1.41,5.43 -5,10.86 -3.58,5.43 -3.8,12.71 7.28,14.66 0,0 -19.44,9.99 -26.17,12.82 -6.73,2.82 -11.4,0.54 -11.4,0.54 l 0.22,-3.04 c 0,0 6.19,0 6.19,-0.76 0,-0.76 5.43,-21.07 9.56,-24 4.13,-2.93 7.17,-2.06 6.95,-5.76 -0.22,-3.69 -0.22,-3.69 -0.22,-3.69 0,0 14.23,-14.12 22.92,-20.31 8.69,-6.19 8.69,-6.19 8.69,-6.19 0,0 -8.8,-0.33 -21.72,5.65 -12.92,5.97 -35.95,10.97 -41.6,11.19 -5.65,0.22 -8.25,0.76 -8.25,0.76 0,0 -0.33,-4.67 0.87,-6.08 1.19,-1.41 6.41,-6.84 16.73,-13.03 10.32,-6.19 19.55,-9.34 19.55,-9.34 l -8.8,8.58 17.81,-10.53 2.06,2.06 -9.23,12.16 c 0,0 16.94,-9.56 27.15,-10.43 10.21,-0.87 16.73,1.19 17.05,4.02 0.33,2.82 0.65,7.6 0.76,8.25 0.11,0.65 9.88,-1.09 11.08,0.43 1.17,1.52 5.52,9.07 8.13,15.61 z m -95.25,-12.24 3.15,7.6 13.9,-8.69 -2.72,-8.04 z"
   id="path4658" />
		<path
   class="st0"
   d="m 1888.79,501.73 c 0,0 0,2.27 1.78,3.97 1.78,1.7 4.53,4.13 4.53,4.13 0,0 -3.56,0.97 -7.53,-1.29 -3.97,-2.27 -4.61,-6.31 -4.61,-6.31 z"
   id="path4660" />
		<path
   class="st0"
   d="m 1897.37,502.29 2.67,5.02 c 0,0 10.68,-3.56 15.05,-3.88 4.37,-0.32 5.91,-0.49 5.91,-0.49 0,0 -1.7,-9.96 -6.15,-10.36 -4.45,-0.4 -11.98,2.75 -17.48,9.71 z"
   id="path4662" />
		<path
   class="st0"
   d="m 1919.79,483.84 c -3.8,0.32 -0.49,2.83 0.81,4.86 1.3,2.02 2.91,9.06 2.91,9.06 l 0.97,1.05 c 0,0 0.08,-5.75 -0.97,-8.82 -1.05,-3.07 -3.72,-6.15 -3.72,-6.15 z"
   id="path4664" />
		<path
   class="st0"
   d="m 1930.15,489.75 c -2.67,0 -2.75,7.28 -2.75,10.04 0,2.76 2.35,4.69 2.35,4.69 l 7.2,-8.58 -6.64,5.67 c 0,0 1.05,-5.58 1.05,-8.09 0,-2.52 -1.21,-3.73 -1.21,-3.73 z"
   id="path4666" />
		<path
   class="st0"
   d="m 1827.73,498.2 c 0,0 -1.15,11.62 0.92,15.21 2.06,3.59 8.03,7.87 8.03,7.87 0,0 1.45,-5.66 0,-13.3 -1.46,-7.64 -8.95,-9.78 -8.95,-9.78 z"
   id="path4668" />
		<path
   class="st0"
   d="m 1918.21,429.36 c -10.65,-6.35 -24.51,-11.89 -37.71,-11.74 -13.2,0.15 -34.87,3.5 -45.59,7.81 -10.72,4.3 -38.01,19.55 -42.82,23.71 -4.81,4.16 -5.4,4.16 3.43,4.45 8.83,0.29 15.9,2.84 16.78,2.99 0.88,0.15 -2.77,5.03 -0.8,5.76 0,0 11.38,-0.44 13.5,1.09 2.12,1.53 3.72,6.2 3.72,6.2 0,0 8.68,-10.36 33.85,-25.02 25.17,-14.66 28.6,-16.92 28.6,-18.24 0,-1.31 -10.72,-5.47 -22.98,-4.52 0,0 12.11,-4.16 25.75,0.29 13.64,4.45 12.26,6.2 4.81,11.82 -7.44,5.62 -14.81,9.99 -14.81,9.99 0,0 16.63,-4.67 24.58,-3.06 7.95,1.6 6.2,12.47 6.2,12.47 0,0 6.57,-2.04 6.05,-6.93 -0.51,-4.89 -2.99,-7.88 -6.57,-8.54 -3.57,-0.66 -5.76,-0.73 -5.76,-0.73 0,0 6.64,-3.79 6.64,-6.78 0,0 6.06,4.6 8.97,11.16 2.92,6.57 4.16,8.61 4.16,8.61 l 3.57,-5.4 c 0,0 -2.92,-9.04 -13.57,-15.39 z m -95.13,26.77 c -1.46,1.17 -2.48,-1.17 0.58,-5.84 3.06,-4.67 3.36,-6.42 -0.29,-6.42 -3.65,0 -24.44,5.18 -24.44,4.96 0,-0.22 17.36,-8.1 25.97,-9.56 8.61,-1.46 9.34,2.12 7.51,4.01 -1.81,1.91 -9.33,12.85 -9.33,12.85 z m 10.51,-2.77 c -1.24,3.87 -6.78,5.11 -6.86,1.75 -0.07,-3.36 3.65,-6.13 3.65,-6.13 1.46,-1.24 4.45,0.51 3.21,4.38 z m 20.61,-29.22 -20.12,10.3 c 7.91,-10.78 20.12,-10.3 20.12,-10.3 z m 23.65,-0.19 c 8.87,0.95 8.97,4.86 6.01,6.1 -2.96,1.24 -33.95,20.6 -33.95,20.6 0.57,-1.24 16.12,-14.97 16.98,-20.31 0.86,-5.34 -9.73,-5.34 -9.73,-5.34 0,0 11.82,-2.01 20.69,-1.05 z"
   id="path4670" />
		<path
   class="st0"
   d="m 1451.02,649.18 -2.36,1.18 c 0,0 -9.82,-29.45 -38.6,-35.94 -28.79,-6.49 -57.74,7.16 -80.21,39.77 -22.46,32.61 -24.13,68.89 -23.63,79.71 0.5,10.82 8.32,39.44 16.47,49.59 8.15,10.15 25.96,21.13 49.59,20.13 23.63,-1 53.25,-24.46 65.23,-50.09 11.98,-25.63 17.47,-43.76 17.47,-43.76 l 1.83,0.33 c 0,0 -8.82,37.11 -29.29,63.9 -20.47,26.79 -47.59,34.94 -64.23,34.11 -16.64,-0.83 -42.77,-11.98 -54.08,-42.6 -11.32,-30.62 -6.16,-64.56 3.49,-88.53 9.65,-23.97 36.94,-62.07 71.55,-68.22 34.62,-6.15 57.32,14.78 66.77,40.42 z"
   id="path4672" />
		<path
   class="st0"
   d="m 1438.41,661.37 c 0,0 0,2.88 1.44,6.01 1.44,3.12 4.81,7.21 4.81,7.21 l -3.85,1.92 c 0,0 -4.81,-4.93 -6.01,-7.57 -1.19,-2.65 -0.35,-7.82 3.61,-7.57 z"
   id="path4674" />
		<path
   class="st0"
   d="m 1368.79,699.28 3.14,-1.49 c 0,0 2.67,5.5 3.54,6.6 0.86,1.1 2.44,3.93 2.44,3.93 l -2.67,1.26 c -0.01,-0.01 -5.19,-5.51 -6.45,-10.3 z"
   id="path4676" />
		<path
   class="st0"
   d="m 1616.95,1039.58 3.99,1.17 c 0,0 -8.93,22.31 -5.64,50.74 3.29,28.42 21.61,59.43 43.45,74.22 21.84,14.8 53.55,20.2 82.91,8.69 29.36,-11.51 49.56,-46.98 47.92,-83.62 -1.64,-36.64 -25.37,-72.81 -48.86,-86.67 -23.49,-13.86 -49.8,-13.62 -56.61,-12.92 l -3.05,-3.05 10.6,-1.93 0.83,3.31 9.5,0.55 1.65,-2.07 18.18,3.03 -0.69,2.34 4.96,2.07 0.96,-2.07 c 0,0 27.68,8.81 48.89,41.04 21.21,32.23 24.15,70.36 9.45,103.61 -14.7,33.25 -50.21,51.12 -80.07,48.63 -29.86,-2.49 -59.48,-16.06 -78.94,-48.18 -19.46,-32.12 -22.51,-65.47 -9.43,-98.89 z"
   id="path4678" />
		<path
   class="st0"
   d="m 1611.05,733.29 -4.41,-19.68 -12.1,-13.57 9.5,6.22 -6.45,-43.32 c 0,0 11.2,48.97 11.99,58.14 0.79,9.17 1.47,12.21 1.47,12.21 z"
   id="path4680" />
	</g>
	<g
   id="g4716">
		
		
		
		
		
		
		
		
		
		
		
		
		
		
		
		
	</g>
	<g
   id="g4752">
		
		
		
		
		
		
		
		
		
		
		
		
		
		
		
		
		
	</g>
	<g
   id="g4764">
		<g
   id="g4762">
			
			
			
			
		</g>
	</g>
</g>
<path
   style="fill:#ffffff;fill-opacity:1;fill-rule:evenodd;stroke:none;stroke-width:1px;stroke-linecap:butt;stroke-linejoin:miter;stroke-opacity:1"
   d="m 255.85574,1387.7854 c 38.81228,-28.3535 94.2788,-43.6566 148.5543,-45.5606 54.27551,-1.9041 107.3574,9.5902 146.90093,30.8124 39.54354,21.2223 65.54689,52.1702 86.0891,72.8718 20.54221,20.7017 35.62188,31.1563 42.46775,52.1005 6.84586,20.9443 5.45884,52.3766 5.45765,76.6792 -0.001,24.3027 1.38327,41.474 8.42405,66.227 7.04077,24.753 19.7369,57.0854 41.51051,88.9002 21.7736,31.8147 52.62263,63.11 102.65926,73.4137 50.03662,10.3037 119.25613,-0.3832 164.10781,9.2762 44.8516,9.6595 65.3302,39.6633 80.1477,81.4953 14.8176,41.832 23.9739,95.4895 30.7443,141.152 6.7704,45.6625 11.1546,83.3275 -166.36981,110.0524 -177.52445,26.7249 -536.93689,42.5091 -696.2287,-67.0259 -159.291804,-109.5351 -118.44205,-344.3819 -86.93796,-482.51 31.50408,-138.1281 53.66082,-179.5306 92.47311,-207.8842 z"
   id="path4983"
   inkscape:path-effect="#path-effect4985"
   inkscape:original-d="m 239.20085,1374.7352 c 55.46751,-15.3021 110.93403,-30.6052 166.39954,-45.9094 53.085,11.4957 106.16687,22.99 159.2488,34.4834 26.00541,30.9502 52.00878,61.8981 78.01167,92.8457 15.08128,10.456 30.16095,20.9106 45.23993,31.3644 -1.38607,31.4345 -2.77309,62.8668 -4.16113,94.2987 1.38554,17.1733 2.76999,34.3446 4.15352,51.5158 12.69765,32.3347 25.39377,64.6671 38.08917,96.9992 30.85129,31.2976 61.70034,62.5929 92.549,93.8879 69.22474,-10.6865 138.44424,-21.3734 207.66715,-32.0619 20.4805,30.0061 40.959,60.0099 61.437,90.0134 9.1577,53.6606 18.314,107.3181 27.4695,160.9756 4.3854,37.6675 8.7696,75.3325 13.1529,112.9972 -359.43301,15.7862 -718.84545,31.5705 -1078.280365,47.3547 40.85239,-234.8552 81.702145,-469.702 122.551735,-704.5546 22.15863,-41.4032 44.31538,-82.8057 66.47158,-124.2101 z"
   sodipodi:nodetypes="cccccccccccccccc" /><path
   style="fill:#030303;fill-opacity:1;fill-rule:evenodd;stroke:#000000;stroke-width:1px;stroke-linecap:butt;stroke-linejoin:miter;stroke-opacity:1"
   d="m 760.00841,1758.8366 c 5.85395,6.2502 13.0981,13.8975 22.27089,21.7534 9.1728,7.8558 20.27306,15.9195 31.19695,23.1601 10.92389,7.2407 21.67003,13.6576 35.21893,19.3049 13.54891,5.6472 29.89882,10.5245 46.66357,14.1309 16.76476,3.6063 33.94235,5.9416 49.98511,6.6152 16.04276,0.6736 30.94926,-0.3144 45.7339,-3.2086 14.78464,-2.8942 29.44644,-7.6942 40.18184,-12.0673 10.7354,-4.3731 17.5436,-8.319 16.1977,-14.6111 -1.3459,-6.2922 -10.8463,-14.9313 -32.7026,-17.5005 -21.85623,-2.5692 -56.06652,0.9327 -87.64052,-1.1827 -31.574,-2.1154 -60.5103,-9.8483 -83.34385,-19.6343 -22.83354,-9.7861 -39.56299,-21.625 -54.96979,-27.4203 -15.40679,-5.7954 -29.48985,-5.5461 -34.2997,-2.9944 -4.80985,2.5517 -0.34639,7.4045 5.50757,13.6547 z"
   id="path5471"
   inkscape:path-effect="#path-effect5473"
   inkscape:original-d="m 758.61701,1757.4382 c 7.24535,7.6486 14.48953,15.2959 21.73302,22.9426 11.10192,8.0652 22.20217,16.1289 33.30211,24.192 10.74782,6.4183 21.49396,12.8352 32.23978,19.2515 16.35197,4.8786 32.70187,9.7559 49.05177,14.6324 17.1797,2.3364 34.3573,4.6716 51.5349,7.006 14.9081,-0.987 29.8146,-1.9749 44.7204,-2.9639 14.66381,-4.7993 29.32561,-9.5993 43.98731,-14.4005 6.8094,-3.945 13.6176,-7.8909 20.4249,-11.8378 -9.4999,-8.6385 -19.0003,-17.2776 -28.502,-25.918 -34.21061,3.5031 -68.42091,7.0049 -102.63281,10.5059 -28.9364,-7.7322 -57.8727,-15.4651 -86.81056,-23.1992 -16.72915,-11.8385 -33.45863,-23.6774 -50.18945,-35.5176 -14.08261,0.2504 -28.16567,0.4997 -42.25,0.748 4.46463,4.854 8.92808,9.7068 13.39063,14.5586 z"
   sodipodi:nodetypes="ccccccccccccccc" /></svg>
